<svg width="676" height="511" viewBox="0 0 676 511" fill="none" xmlns="http://www.w3.org/2000/svg">
<g opacity="0.9">
<path d="M591.842 423.2L71.8425 408.3C47.6425 407.6 27.7425 389.1 25.3425 365L0.24249 117C-2.55751 88.9 19.2425 64.4 47.4425 64L626.242 56C655.442 55.6 678.342 81.1 674.742 110.1L641.042 381C637.942 405.7 616.642 424 591.842 423.2Z" fill="#F8AB5D"/>
<mask id="mask0_323_131" style="mask-type:alpha" maskUnits="userSpaceOnUse" x="0" y="55" width="676" height="369">
<path d="M591.843 423.2L71.8427 408.3C47.6427 407.6 27.7427 389.1 25.3427 365L0.242703 117C-2.5573 88.9 19.2427 64.4 47.4427 64L626.243 56C655.443 55.6 678.343 81.1 674.743 110.1L641.043 381C637.943 405.7 616.643 424 591.843 423.2Z" fill="#EAF9F3"/>
</mask>
<g mask="url(#mask0_323_131)">
<path d="M516.943 490.5H932.443C940.743 490.5 947.443 483.8 947.443 475.5V239.9C947.443 231.6 940.743 224.9 932.443 224.9H516.943C508.643 224.9 501.943 231.6 501.943 239.9V475.5C501.943 483.8 508.743 490.5 516.943 490.5Z" stroke="#22272E" stroke-width="1.8" stroke-miterlimit="10" stroke-linecap="round" stroke-linejoin="round"/>
<path d="M-32.1575 474.7H386.943C395.243 474.7 401.943 468 401.943 459.7V115.4C401.943 107.1 395.243 100.4 386.943 100.4H-32.1575C-40.4575 100.4 -47.1575 107.1 -47.1575 115.4V459.7C-47.1575 468 -40.3575 474.7 -32.1575 474.7Z" stroke="#22272E" stroke-width="1.8" stroke-miterlimit="10" stroke-linecap="round" stroke-linejoin="round"/>
<path d="M539.543 224.8H559.843C562.043 224.8 563.842 223.2 564.142 221L565.743 206.6C566.043 204.1 564.043 201.8 561.443 201.8H537.943C535.343 201.8 533.442 204 533.642 206.6L535.243 221C535.543 223.2 537.343 224.8 539.543 224.8Z" stroke="#22272E" stroke-width="1.8" stroke-miterlimit="10" stroke-linecap="round" stroke-linejoin="round"/>
<path d="M552.043 201.9C552.043 201.9 560.043 201.1 561.643 190.3C561.643 190.3 554.443 192.4 552.143 197.5C552.143 197.5 551.143 186.1 545.743 185C545.743 185 543.343 193.5 547.143 197.7C547.143 197.7 544.243 192.9 536.843 193C536.843 193 538.743 199.8 546.043 201.8" fill="#22272E"/>
<path d="M53.8426 205.1H74.1426C76.3426 205.1 78.1425 203.5 78.4425 201.3L80.0425 186.9C80.3425 184.4 78.3425 182.1 75.7425 182.1H52.2425C49.6425 182.1 47.7425 184.3 47.9425 186.9L49.5425 201.3C49.7425 203.4 51.6426 205.1 53.8426 205.1Z" stroke="#22272E" stroke-width="1.8" stroke-miterlimit="10" stroke-linecap="round" stroke-linejoin="round"/>
<path d="M66.3425 182.1C66.3425 182.1 74.3425 181.3 75.9425 170.5C75.9425 170.5 68.7425 172.6 66.4425 177.7C66.4425 177.7 65.4425 166.3 60.0425 165.2C60.0425 165.2 57.6425 173.7 61.4425 177.9C61.4425 177.9 58.5425 173.1 51.1425 173.2C51.1425 173.2 53.0425 180 60.3425 182" fill="#22272E"/>
<path d="M520.143 274.6H610.343C612.643 274.6 614.543 272.7 614.543 270.4V242.9C614.543 240.6 612.643 238.7 610.343 238.7H520.143C517.843 238.7 515.943 240.6 515.943 242.9V270.3C515.943 272.7 517.843 274.6 520.143 274.6Z" stroke="#22272E" stroke-width="1.8" stroke-miterlimit="10" stroke-linecap="round" stroke-linejoin="round"/>
<path d="M554.843 248.5H575.643C576.443 248.5 577.143 247.8 577.143 247C577.143 246.2 576.443 245.5 575.643 245.5H554.843C554.043 245.5 553.343 246.2 553.343 247C553.343 247.8 554.043 248.5 554.843 248.5Z" fill="#22272E"/>
<path d="M520.143 320.4H610.343C612.643 320.4 614.543 318.5 614.543 316.2V288.8C614.543 286.5 612.643 284.6 610.343 284.6H520.143C517.843 284.6 515.943 286.5 515.943 288.8V316.2C515.943 318.5 517.843 320.4 520.143 320.4Z" stroke="#22272E" stroke-width="1.8" stroke-miterlimit="10" stroke-linecap="round" stroke-linejoin="round"/>
<path d="M554.843 294.3H575.643C576.443 294.3 577.143 293.6 577.143 292.8C577.143 292 576.443 291.3 575.643 291.3H554.843C554.043 291.3 553.343 292 553.343 292.8C553.343 293.6 554.043 294.3 554.843 294.3Z" fill="#22272E"/>
<path d="M56.9425 352.8H147.143C149.443 352.8 151.343 350.9 151.343 348.6V321.2C151.343 318.9 149.443 317 147.143 317H56.9425C54.6425 317 52.7425 318.9 52.7425 321.2V348.6C52.7425 350.9 54.6425 352.8 56.9425 352.8Z" stroke="#22272E" stroke-width="1.8" stroke-miterlimit="10" stroke-linecap="round" stroke-linejoin="round"/>
<path d="M91.7426 326.6H112.543C113.343 326.6 114.043 325.9 114.043 325.1C114.043 324.3 113.343 323.6 112.543 323.6H91.7426C90.9426 323.6 90.2426 324.3 90.2426 325.1C90.2426 326 90.8426 326.6 91.7426 326.6Z" fill="#22272E"/>
<path d="M172.743 352.8H262.943C265.243 352.8 267.143 350.9 267.143 348.6V321.2C267.143 318.9 265.243 317 262.943 317H172.743C170.443 317 168.543 318.9 168.543 321.2V348.6C168.543 350.9 170.443 352.8 172.743 352.8Z" stroke="#22272E" stroke-width="1.8" stroke-miterlimit="10" stroke-linecap="round" stroke-linejoin="round"/>
<path d="M207.543 326.6H228.343C229.143 326.6 229.843 325.9 229.843 325.1C229.843 324.3 229.143 323.6 228.343 323.6H207.543C206.743 323.6 206.043 324.3 206.043 325.1C206.043 326 206.643 326.6 207.543 326.6Z" fill="#22272E"/>
<path d="M635.143 274.6H725.343C727.643 274.6 729.543 272.7 729.543 270.4V242.9C729.543 240.6 727.643 238.7 725.343 238.7H635.143C632.843 238.7 630.943 240.6 630.943 242.9V270.3C630.943 272.7 632.843 274.6 635.143 274.6Z" stroke="#22272E" stroke-width="1.8" stroke-miterlimit="10" stroke-linecap="round" stroke-linejoin="round"/>
<path d="M669.843 248.5H690.643C691.443 248.5 692.143 247.8 692.143 247C692.143 246.2 691.443 245.5 690.643 245.5H669.843C669.043 245.5 668.343 246.2 668.343 247C668.343 247.8 669.043 248.5 669.843 248.5Z" fill="#22272E"/>
<path d="M635.143 320.4H725.343C727.643 320.4 729.543 318.5 729.543 316.2V288.8C729.543 286.5 727.643 284.6 725.343 284.6H635.143C632.843 284.6 630.943 286.5 630.943 288.8V316.2C630.943 318.5 632.843 320.4 635.143 320.4Z" stroke="#22272E" stroke-width="1.8" stroke-miterlimit="10" stroke-linecap="round" stroke-linejoin="round"/>
<path d="M669.843 294.3H690.643C691.443 294.3 692.143 293.6 692.143 292.8C692.143 292 691.443 291.3 690.643 291.3H669.843C669.043 291.3 668.343 292 668.343 292.8C668.343 293.6 669.043 294.3 669.843 294.3Z" fill="#22272E"/>
<path d="M-74.3575 205.2H380.643C383.143 205.2 385.243 203.1 385.243 200.6V120.9C385.243 118.4 383.143 116.3 380.643 116.3H-74.3575C-76.8575 116.3 -78.9575 118.4 -78.9575 120.9V200.6C-78.9575 203.2 -76.8575 205.2 -74.3575 205.2Z" stroke="#22272E" stroke-width="1.8" stroke-miterlimit="10" stroke-linecap="round" stroke-linejoin="round"/>
<path d="M-74.3575 304.2H380.643C383.143 304.2 385.243 302.1 385.243 299.6V219.9C385.243 217.4 383.143 215.3 380.643 215.3H-74.3575C-76.8575 215.3 -78.9575 217.4 -78.9575 219.9V299.6C-78.9575 302.1 -76.8575 304.2 -74.3575 304.2Z" stroke="#22272E" stroke-width="1.8" stroke-miterlimit="10" stroke-linecap="round" stroke-linejoin="round"/>
<path d="M344.774 205.288L354.674 205.288L354.674 154.988L344.774 154.988L344.774 205.288Z" stroke="#22272E" stroke-width="1.8" stroke-miterlimit="10" stroke-linecap="round" stroke-linejoin="round"/>
<path d="M334.431 205.203L344.731 205.203L344.731 168.603L334.431 168.603L334.431 205.203Z" stroke="#22272E" stroke-width="1.8" stroke-miterlimit="10" stroke-linecap="round" stroke-linejoin="round"/>
<path d="M46.3962 304.029L56.2962 304.029L56.2962 253.729L46.3962 253.729L46.3962 304.029Z" stroke="#22272E" stroke-width="1.8" stroke-miterlimit="10" stroke-linecap="round" stroke-linejoin="round"/>
<path d="M36.0534 304.043L46.3534 304.043L46.3534 267.443L36.0534 267.443L36.0534 304.043Z" stroke="#22272E" stroke-width="1.8" stroke-miterlimit="10" stroke-linecap="round" stroke-linejoin="round"/>
<path d="M66.482 304.029L76.382 304.029L76.382 253.729L66.482 253.729L66.482 304.029Z" stroke="#22272E" stroke-width="1.8" stroke-miterlimit="10" stroke-linecap="round" stroke-linejoin="round"/>
<path d="M91.3845 303.619L100.825 300.638L85.6798 252.672L76.2392 255.653L91.3845 303.619Z" stroke="#22272E" stroke-width="1.8" stroke-miterlimit="10" stroke-linecap="round" stroke-linejoin="round"/>
<path d="M56.2391 304.043L66.5391 304.043L66.5391 267.443L56.2391 267.443L56.2391 304.043Z" stroke="#22272E" stroke-width="1.8" stroke-miterlimit="10" stroke-linecap="round" stroke-linejoin="round"/>
<path d="M265.443 161.5L264.343 146.6C264.243 145.6 265.043 144.8 266.043 144.8H270.343H274.643C275.643 144.8 276.343 145.6 276.343 146.6L275.243 161.5C275.243 161.5 284.243 167.3 284.143 172.1C284.043 175.8 281.843 193.5 280.843 201.3C280.543 203.5 278.743 205.1 276.543 205.1H270.343H264.143C261.943 205.1 260.143 203.5 259.843 201.3C258.843 193.5 256.643 175.8 256.543 172.1C256.443 167.3 265.443 161.5 265.443 161.5Z" fill="#22272E"/>
<path d="M221.243 161.5L220.143 146.6C220.043 145.6 220.843 144.8 221.843 144.8H226.143H230.443C231.443 144.8 232.143 145.6 232.143 146.6L231.043 161.5C231.043 161.5 240.043 167.3 239.943 172.1C239.843 175.8 237.643 193.5 236.643 201.3C236.343 203.5 234.543 205.1 232.343 205.1H226.143H219.943C217.743 205.1 215.943 203.5 215.643 201.3C214.643 193.5 212.443 175.8 212.343 172.1C212.243 167.3 221.243 161.5 221.243 161.5Z" fill="#22272E"/>
<path d="M662.743 398.6H-270.157" stroke="#22272E" stroke-width="1.8" stroke-miterlimit="10" stroke-linecap="round" stroke-linejoin="round"/>
<path d="M249.443 304.2H166.243C163.543 304.2 161.342 302 161.342 299.3V286.2C161.342 283.5 163.543 281.3 166.243 281.3H249.443C252.143 281.3 254.342 283.5 254.342 286.2V299.3C254.342 302 252.143 304.2 249.443 304.2Z" stroke="#22272E" stroke-width="1.8" stroke-miterlimit="10" stroke-linecap="round" stroke-linejoin="round"/>
<path d="M237.743 260.2H177.743V281.2H237.743V260.2Z" stroke="#22272E" stroke-width="1.8" stroke-miterlimit="10" stroke-linecap="round" stroke-linejoin="round"/>
<path d="M170.743 290.4C171.571 290.4 172.243 289.728 172.243 288.9C172.243 288.071 171.571 287.4 170.743 287.4C169.914 287.4 169.243 288.071 169.243 288.9C169.243 289.728 169.914 290.4 170.743 290.4Z" fill="#22272E"/>
</g>
<path d="M305.342 130.1C305.342 130.1 299.142 143 298.642 151.2C298.142 159.4 306.842 192.3 321.042 217.4C321.042 217.4 334.442 213 334.442 208.9C334.442 204.8 326.542 156.3 327.042 154.9C327.542 153.5 333.042 143.2 333.042 138.8C333.042 134.5 307.442 125.3 305.342 130.1Z" fill="#F4C2C9"/>
<path d="M333.042 138.8C333.042 134.4 307.542 125.3 305.442 130.1C305.442 130.1 304.642 131.9 303.542 134.5C311.642 140.8 320.342 146.2 330.242 148C331.642 144.8 333.042 141 333.042 138.8Z" fill="#E26E85"/>
<path d="M331.942 75.3C331.942 75.3 321.942 78.7001 314.342 95.9001C306.642 113.2 298.642 127.5 298.642 127.5C298.642 127.5 311.142 139.9 327.142 146.2C343.142 152.7 343.742 76.9 331.942 75.3Z" fill="#22272E"/>
<path d="M301.442 122.4C301.442 122.4 318.542 136.4 334.442 142.5" stroke="#22272E" stroke-width="1.8" stroke-miterlimit="10" stroke-linecap="round" stroke-linejoin="round"/>
<path d="M365.342 448.3C365.342 448.3 364.442 469.3 364.642 471.3C364.842 473.4 357.643 477.6 348.743 477.3C339.943 477 339.042 474.4 339.042 474.4C339.042 474.4 337.042 451.7 336.842 448.5C336.642 445.3 363.542 444 365.342 448.3Z" fill="#F4C2C9"/>
<path d="M364.842 460.4C365.042 454.4 365.342 448.3 365.342 448.3C363.542 444 336.642 445.3 336.842 448.5C336.942 450 337.442 455.6 337.842 461.2C345.742 465.1 356.142 464.1 364.842 460.4Z" fill="#22272E"/>
<path d="M364.642 470.7C364.642 470.7 365.443 476.6 365.743 483C366.043 489.5 367.043 501.1 365.943 503.1C364.743 505.1 358.743 506.8 344.443 507.9C330.143 509 316.942 508 314.642 506.2C312.342 504.4 313.043 501.7 315.243 499.6C317.443 497.5 326.143 488.2 329.743 484.4C334.443 479.4 337.842 474.3 337.842 473.7C338.142 471.3 338.642 471.3 338.642 471.3C338.642 471.3 339.242 472.8 340.042 472.7C340.842 472.6 341.943 468.1 346.743 469.2C351.643 470.3 353.542 473.6 355.342 473.6C357.142 473.5 362.042 472.9 364.642 470.7Z" fill="#22272E"/>
<path d="M402.842 452.5C402.842 452.5 405.542 474.1 406.042 475.4C406.542 476.7 411.542 480.3 419.342 479.9C427.142 479.5 430.143 477.2 430.443 476.7C430.743 476.2 430.242 451.5 430.042 449.9C429.842 448.3 404.642 448.7 402.842 452.5Z" fill="#F4C2C9"/>
<path d="M430.342 461C430.242 455.5 430.043 450.4 429.943 449.7C429.643 448.1 404.642 448.6 402.742 452.4C402.742 452.4 403.342 457.2 404.042 462.4C413.042 464.5 422.042 463.9 430.342 461Z" fill="#22272E"/>
<path d="M405.642 473.5C405.442 475.1 405.342 476.6 405.442 478.2C405.542 479.5 405.642 481.3 405.642 483.5C405.742 488.1 406.142 504 407.242 506.3C408.342 508.6 420.942 510.5 430.442 510.6C439.942 510.7 446.942 508.2 448.042 505.6C449.142 503 448.542 499.2 445.242 495C441.942 490.8 434.342 484.3 433.442 481.2C432.542 478.1 431.142 474.5 430.542 473.5C430.542 473.5 429.242 475.3 427.842 475.7C426.542 476.1 424.642 470.7 420.542 470.5C416.442 470.2 414.642 471.9 412.042 475.7C411.942 475.7 408.342 476 405.642 473.5Z" fill="#22272E"/>
<path d="M317.942 191.7C317.942 191.7 315.542 202.6 314.342 217.3C313.142 232 317.342 323.1 317.942 330.2C318.542 337.3 320.842 377.8 323.442 397.5C325.542 413.7 324.042 446.4 328.942 451C333.842 455.6 348.842 458.1 358.142 455.6C367.442 453.1 371.742 448.5 372.842 444.7C373.942 440.9 369.542 412 369.842 397.3C370.142 382.6 369.842 339.2 369.342 328.9C369.342 328.9 373.442 276.3 378.342 264.3C383.242 252.3 390.342 208.1 376.742 195.3C362.942 182.5 319.142 189.6 317.942 191.7Z" fill="#22272E"/>
<path d="M339.842 197.5C339.842 197.5 339.742 217.3 340.542 232.1C340.842 237.7 341.342 242.6 342.042 245.5C344.542 255.9 349.942 256.7 354.042 259.1C358.142 261.6 372.842 320.4 378.842 335.7C378.842 335.7 383.442 370.9 387.042 391.9C390.542 412.9 390.042 438.3 392.742 447C395.442 455.7 411.242 457.4 418.942 456.7C426.642 456 436.942 453 436.642 444C436.342 435 434.842 409.4 433.542 387.6C432.142 365.8 429.742 333.3 429.142 325.7C429.142 325.7 426.142 289.7 424.542 271.2C422.942 252.7 423.842 233.8 421.442 201.9C418.842 169.9 339.742 179.7 339.842 197.5Z" fill="#22272E"/>
<path d="M340.542 232.1C340.842 237.7 341.342 242.6 342.042 245.5C344.542 255.9 349.942 256.7 354.042 259.1C358.142 261.6 372.842 320.4 378.842 335.7" stroke="#63737A" stroke-width="1.8" stroke-miterlimit="10" stroke-linecap="round" stroke-linejoin="round"/>
<path d="M354.042 259.1C354.042 259.1 342.342 253.1 337.142 255.3" stroke="#63737A" stroke-width="1.8" stroke-miterlimit="10" stroke-linecap="round" stroke-linejoin="round"/>
<path d="M336.142 344.8C343.433 344.8 349.342 338.308 349.342 330.3C349.342 322.292 343.433 315.8 336.142 315.8C328.852 315.8 322.942 322.292 322.942 330.3C322.942 338.308 328.852 344.8 336.142 344.8Z" stroke="#63737A" stroke-width="1.8" stroke-miterlimit="10" stroke-linecap="round" stroke-linejoin="round"/>
<path d="M405.142 343.9C412.654 343.9 418.742 337.408 418.742 329.4C418.742 321.392 412.654 314.9 405.142 314.9C397.631 314.9 391.542 321.392 391.542 329.4C391.542 337.408 397.631 343.9 405.142 343.9Z" stroke="#63737A" stroke-width="1.8" stroke-miterlimit="10" stroke-linecap="round" stroke-linejoin="round"/>
<path d="M341.942 462.7C341.942 462.7 341.642 460.6 341.942 459.7" stroke="#FFE779" stroke-width="1.8" stroke-miterlimit="10" stroke-linecap="round" stroke-linejoin="round"/>
<path d="M350.242 464C350.242 464 350.242 460.1 350.242 459.7" stroke="#FFE779" stroke-width="1.8" stroke-miterlimit="10" stroke-linecap="round" stroke-linejoin="round"/>
<path d="M360.342 462C360.342 462 360.442 459.5 360.342 458.4" stroke="#FFE779" stroke-width="1.8" stroke-miterlimit="10" stroke-linecap="round" stroke-linejoin="round"/>
<path d="M408.342 463.3C408.342 463.3 407.842 460.6 407.842 459.8" stroke="#FFE779" stroke-width="1.8" stroke-miterlimit="10" stroke-linecap="round" stroke-linejoin="round"/>
<path d="M418.342 463.7C418.342 463.7 418.542 460.3 418.342 459.4" stroke="#FFE779" stroke-width="1.8" stroke-miterlimit="10" stroke-linecap="round" stroke-linejoin="round"/>
<path d="M426.943 462.1C426.943 462.1 427.143 459.8 426.943 458.7" stroke="#FFE779" stroke-width="1.8" stroke-miterlimit="10" stroke-linecap="round" stroke-linejoin="round"/>
<path d="M332.542 482.9C332.542 482.9 340.142 476.8 355.042 485.2" stroke="#FFE779" stroke-width="1.8" stroke-miterlimit="10" stroke-linecap="round" stroke-linejoin="round"/>
<path d="M326.842 490.6C326.842 490.6 336.242 483.1 350.242 492.2" stroke="#FFE779" stroke-width="1.8" stroke-miterlimit="10" stroke-linecap="round" stroke-linejoin="round"/>
<path d="M435.742 487.3C435.742 487.3 426.642 483.3 414.342 489.8" stroke="#FFE779" stroke-width="1.8" stroke-miterlimit="10" stroke-linecap="round" stroke-linejoin="round"/>
<path d="M439.842 494.1C439.842 494.1 429.342 489.5 416.642 497.8" stroke="#FFE779" stroke-width="1.8" stroke-miterlimit="10" stroke-linecap="round" stroke-linejoin="round"/>
<path d="M380.342 71.8C380.342 71.8 385.343 73.3 395.943 73.5C406.543 73.7 418.642 76.8 423.342 82.7C428.042 88.6 429.542 132.1 428.842 151.8C428.142 171.4 414.042 200.8 414.042 200.8C414.042 200.8 380.342 204.6 352.742 203.3C325.142 201.9 318.542 195.9 316.642 194C314.742 192.1 313.642 187.5 314.742 185.5C315.842 183.6 321.242 168 323.242 153.1C325.142 138.1 321.042 117.4 322.942 99.1C324.842 80.8 331.942 75.4 331.942 75.4C331.942 75.4 340.842 72.4 356.242 71.9C371.542 71.2 380.342 71.8 380.342 71.8Z" fill="#FFE779"/>
<path d="M378.842 124.5C382.432 124.5 385.342 121.59 385.342 118C385.342 114.41 382.432 111.5 378.842 111.5C375.253 111.5 372.342 114.41 372.342 118C372.342 121.59 375.253 124.5 378.842 124.5Z" fill="#F8AB5D"/>
<path d="M357.042 68C354.342 68.1 352.242 69.7 350.342 71.6C349.142 72.8 348.042 74.4 347.542 76.5C343.742 94.9 349.542 117.1 356.942 116.9C366.242 116.6 378.742 99.7 388.542 80.5C392.542 72.6 384.842 67.1 380.342 67.1C376.842 67 362.642 67.7 357.042 68Z" fill="#22272E"/>
<path d="M399.743 29.1001C399.743 29.1001 399.742 37.2001 395.042 45.2001C390.342 53.2001 384.643 57.4001 382.743 61.0001C380.843 64.6001 381.343 55.2001 382.743 50.7001C384.143 46.3001 392.443 22.2001 399.743 29.1001Z" fill="#22272E"/>
<path d="M354.942 59.5001C354.942 59.5001 353.842 69.2001 353.142 72.9001C352.442 76.6001 350.842 86.3001 363.242 86.9001C374.342 87.5001 380.342 78.9001 382.542 74.7001C383.242 73.4001 383.542 72.0001 383.442 70.6001C383.142 66.2001 382.542 55.4001 382.842 46.6001C383.242 35.4001 354.942 51.6001 354.942 59.5001Z" fill="#F4C2C9"/>
<path d="M376.943 60.2001C371.043 64.9001 362.342 67.1001 354.142 65.9001C353.842 68.5001 353.442 71.3001 353.142 72.9001C353.042 73.4001 352.942 74.0001 352.842 74.7001C362.942 75.2001 374.443 70.2001 376.943 60.2001Z" fill="#E26E85"/>
<path d="M343.142 23.5C343.142 23.5 340.442 27.4 340.842 30.4C341.242 33.4 346.942 43.5 349.842 43.2C352.742 42.9 355.742 30.5 352.342 26.4C348.842 22.3 344.242 21.6 343.142 23.5Z" fill="#22272E"/>
<path d="M345.443 29.2C345.443 29.2 345.743 36.2 344.443 44.2C343.143 52.2 342.242 64.2 354.142 67.5C366.042 70.8 380.043 66.3 384.443 49.9C388.843 33.5 392.042 16.9 376.842 12.1C361.642 7.30003 343.643 13.5 345.443 29.2Z" fill="#F4C2C9"/>
<path d="M350.542 37.2001C350.842 38.3001 350.742 39.6001 350.342 40.8001C350.142 41.4001 349.842 41.9001 349.442 42.4001C349.242 42.7001 349.042 42.9001 348.842 43.1001C348.742 43.2001 348.642 43.4001 348.542 43.5001C348.442 43.8001 348.442 44.1001 348.542 44.4001C348.642 44.8001 348.942 45.2001 349.242 45.6001C349.842 46.4001 350.742 47.1001 351.642 47.7001C350.442 47.8001 349.242 47.4001 348.242 46.6001C347.742 46.2001 347.242 45.7001 346.942 45.0001C346.642 44.3001 346.542 43.4001 346.942 42.7001C347.142 42.3001 347.342 42.0001 347.642 41.8001C347.842 41.6001 348.042 41.5001 348.142 41.3001C348.442 40.9001 348.842 40.5001 349.042 40.1001C349.642 39.2001 350.142 38.3001 350.542 37.2001Z" fill="#22272E"/>
<path d="M383.842 41.8001C383.842 41.8001 382.342 39.5001 381.642 34.9001C381.042 30.3001 376.142 30.6001 373.842 22.1001C371.542 13.6001 365.942 24.1001 357.042 27.9001C348.142 31.7001 341.142 25.6001 337.542 18.8001C334.042 12.1001 340.042 6.00006 344.142 3.20006C348.242 0.40006 352.542 4.90006 360.542 2.90006C368.542 0.900057 381.442 -1.59994 387.642 7.40006C393.842 16.4001 400.242 18.6001 399.842 28.4001C399.342 38.2001 387.942 49.1001 387.242 49.2001C386.442 49.4001 383.842 41.8001 383.842 41.8001Z" fill="#22272E"/>
<path d="M362.742 32.4001C362.442 31.6001 362.142 30.1001 363.242 29.3001C364.342 28.5001 366.842 28.8001 369.242 30.3001C371.342 31.6001 371.942 33.7001 370.542 33.5001C369.142 33.3001 368.042 32.7001 366.342 32.6001C364.542 32.5001 363.042 33.1001 362.742 32.4001Z" fill="#22272E"/>
<path d="M350.742 31.3001C350.942 30.6001 351.142 29.3001 350.442 28.4001C349.842 27.6001 348.242 27.7001 346.742 28.8001C345.442 29.8001 345.042 31.7001 345.942 31.6001C346.842 31.5001 347.442 31.1001 348.542 31.2001C349.642 31.3001 350.542 31.9001 350.742 31.3001Z" fill="#22272E"/>
<path d="M343.842 49.3C343.842 49.3 343.743 50.5 345.443 50.8C347.143 51 347.342 48.5 350.242 48.1C352.042 47.9 358.343 48.4 360.943 50.8C363.543 53.2 367.142 56 372.342 54.4C377.542 52.8 380.642 45.5 381.642 34.9C382.542 25.2 386.142 34.6 386.142 36.9C386.142 38.5 384.642 36.2 382.842 42.7C382.042 45.6 382.842 53.8 379.742 59.8C377.342 64.4 370.642 69.1 362.142 69.7C353.642 70.3 346.642 66.8 344.542 61.2C342.442 55.8 343.242 49.7 343.842 49.3Z" fill="#22272E"/>
<path d="M347.942 38.8C348.742 38.9 349.442 38.3 349.542 37.5L349.642 36.7C349.742 35.9 349.142 35.2 348.342 35.1C347.542 35 346.842 35.6 346.742 36.4L346.642 37.2C346.542 38 347.142 38.7 347.942 38.8Z" fill="#22272E"/>
<path d="M363.842 39.8C364.642 39.9 365.342 39.3 365.442 38.5L365.542 37.7C365.642 36.9 365.042 36.2 364.242 36.1C363.442 36 362.742 36.6 362.642 37.4L362.542 38.2C362.442 39.1 363.042 39.8 363.842 39.8Z" fill="#22272E"/>
<path d="M382.742 42.7001C382.742 42.7001 385.442 36.7001 390.142 37.4001C394.942 38.2001 392.542 50.8001 383.842 50.7001" fill="#F4C2C9"/>
<path d="M389.842 41.9C389.542 41.6 389.242 41.3 389.042 41.2C388.742 41.1 388.842 41.3 388.642 41.4C388.642 41.5 388.442 42.3 388.342 43C388.242 43.7 388.042 44.5 387.642 45.2C387.442 45.6 387.242 46 386.842 46.3C386.442 46.6 385.942 46.7 385.542 46.5C385.942 46.3 386.042 46 386.142 45.7C386.242 45.4 386.242 45.1 386.342 44.8C386.442 44.1 386.442 43.4 386.642 42.6C386.742 42.2 386.843 41.8 386.943 41.4C387.043 41.2 387.142 41 387.242 40.8C387.342 40.7 387.342 40.6 387.542 40.5C387.642 40.4 387.843 40.3 387.943 40.2C388.143 40.1 388.442 40 388.842 40C389.242 40.1 389.442 40.3 389.642 40.5C389.942 41 389.942 41.5 389.842 41.9Z" fill="#22272E"/>
<path d="M354.943 54.9C354.943 54.9 357.642 56.1 360.342 55.6" stroke="#F4C2C9" stroke-width="1.8" stroke-miterlimit="10" stroke-linecap="round" stroke-linejoin="round"/>
<path d="M350.115 35.9247C350.593 30.9216 348.306 26.6104 345.007 26.2955C341.708 25.9806 338.647 29.7812 338.169 34.7844C337.692 39.7875 339.979 44.0987 343.278 44.4136C346.576 44.7285 349.638 40.9279 350.115 35.9247Z" stroke="#22272E" stroke-width="1.8" stroke-miterlimit="10" stroke-linecap="round" stroke-linejoin="round"/>
<path d="M372.353 37.8723C372.831 32.8692 369.786 28.4857 365.553 28.0815C361.319 27.6774 357.5 31.4057 357.022 36.4089C356.545 41.412 359.589 45.7955 363.823 46.1996C368.056 46.6038 371.875 42.8755 372.353 37.8723Z" stroke="#22272E" stroke-width="1.8" stroke-miterlimit="10" stroke-linecap="round" stroke-linejoin="round"/>
<path d="M349.842 37.4001C349.842 37.4001 351.543 34.2001 356.943 38.0001" stroke="#22272E" stroke-width="1.8" stroke-miterlimit="10" stroke-linecap="round" stroke-linejoin="round"/>
<path d="M372.242 37.9L383.542 40.3" stroke="#22272E" stroke-width="1.8" stroke-miterlimit="10" stroke-linecap="round" stroke-linejoin="round"/>
<path d="M415.542 148.3L420.842 159C420.842 159 415.242 166.6 409.242 181C403.242 195.4 398.842 213.2 394.742 218.3C394.742 218.3 398.742 227.9 408.542 232.1C408.542 232.1 427.642 204.1 436.342 191.9C445.042 179.7 453.342 164.1 452.742 156.3C451.842 144.8 443.142 127.8 442.342 123.2C441.542 118.6 415.742 135 415.542 148.3Z" fill="#F4C2C9"/>
<path d="M442.242 123.2C441.542 118.7 415.742 135 415.542 148.3L416.342 149.8C425.442 142.9 435.642 138.2 446.542 134.9C444.442 129.7 442.542 125.2 442.242 123.2Z" fill="#E26E85"/>
<path d="M399.742 207.9C401.142 210.3 405.942 216.7 417.142 219.3C417.542 219.4 417.642 219.8 417.442 220.1L412.342 227C412.242 227.2 411.942 227.2 411.742 227.2C399.242 223.4 395.942 217.1 395.442 215.9C395.342 215.8 395.342 215.6 395.442 215.5L398.842 208C399.042 207.5 399.542 207.5 399.742 207.9Z" fill="#22272E"/>
<path d="M406.816 220.039C408.194 217.774 407.551 214.867 405.38 213.547C403.21 212.227 400.333 212.993 398.956 215.258C397.578 217.523 398.221 220.429 400.392 221.75C402.563 223.07 405.439 222.304 406.816 220.039Z" fill="white"/>
<path d="M418.443 81.9001C420.843 81.5001 423.242 82.4001 424.742 84.3001C427.042 87.2001 430.842 92.8001 435.542 102.4C443.442 118.5 448.943 129.1 448.943 129.1C448.943 129.1 421.542 143.9 415.542 148.3C415.542 148.3 404.442 129.6 400.842 121.8C397.342 114.4 398.343 85.6001 418.443 81.9001Z" fill="#22272E"/>
<path d="M412.142 142.5C412.142 142.5 427.142 131.3 445.842 123.1" stroke="#22272E" stroke-width="1.8" stroke-miterlimit="10" stroke-linecap="round" stroke-linejoin="round"/>
<path d="M390.842 211.7C390.842 211.7 395.542 229.2 414.842 235.3" stroke="#63737A" stroke-width="1.8" stroke-miterlimit="10" stroke-linecap="round" stroke-linejoin="round"/>
<path d="M420.842 159C420.842 159 423.442 155.6 429.042 154.3" stroke="#E26E85" stroke-width="1.8" stroke-miterlimit="10" stroke-linecap="round" stroke-linejoin="round"/>
</g>
</svg>
