<svg width="523" height="538" viewBox="0 0 523 538" fill="none" xmlns="http://www.w3.org/2000/svg">
<g opacity="0.9">
<path d="M192.842 308.7L235.043 293C236.643 292.4 237.743 290.8 237.743 289.1L153.943 283.1L166.842 306.3L188.643 309.2C190.043 309.4 191.542 309.2 192.842 308.7Z" fill="#63737A"/>
<path d="M86.6425 293.4L79.0425 234.1C78.8425 232.4 80.2425 231 81.8425 231.1L183.243 238.3C184.743 238.4 185.943 239.6 186.043 241.1L192.043 306.4C192.243 308.1 190.743 309.5 189.043 309.3L89.2425 296.1C87.8425 295.8 86.7425 294.7 86.6425 293.4Z" fill="#22272E"/>
<path d="M237.743 289.2C237.743 291 236.643 292.5 235.043 293.1L192.842 308.8C191.842 309.2 190.643 309.4 189.543 309.3C187.943 308.1 186.943 306.2 186.943 306.2L237.743 289.2Z" fill="#22272E"/>
<path d="M135.087 273.715C137.753 271.746 138.052 267.63 135.756 264.52C133.459 261.41 129.437 260.485 126.771 262.453C124.106 264.421 123.806 268.538 126.103 271.648C128.399 274.758 132.422 275.683 135.087 273.715Z" fill="#63737A"/>
<path d="M369.842 25H339.243L336.142 27C335.142 27.7 333.842 26.9 333.842 25.7V4C333.842 1.8 335.642 0 337.842 0H369.943C372.143 0 373.943 1.8 373.943 4V20.9C373.843 23.2 372.042 25 369.842 25Z" fill="#F4C2C9"/>
<path d="M353.443 10H364.142" stroke="#22272E" stroke-width="1.8" stroke-miterlimit="10" stroke-linecap="round" stroke-linejoin="round"/>
<path d="M353.443 15.5H359.943" stroke="#22272E" stroke-width="1.8" stroke-miterlimit="10" stroke-linecap="round" stroke-linejoin="round"/>
<path d="M347.943 10H342.443V15.5H347.943V10Z" stroke="#22272E" stroke-width="1.8" stroke-miterlimit="10" stroke-linecap="round" stroke-linejoin="round"/>
<path d="M187.042 186.9L18.0425 212.5C14.2425 213.1 10.8425 210.3 10.5425 206.5L0.442489 54.2999C0.142489 50.0999 3.6425 46.5999 7.8425 46.8999L177.143 57.6999C180.343 57.8999 182.943 60.3999 183.243 63.5999L192.942 179.5C193.242 183 190.642 186.3 187.042 186.9Z" fill="#63737A"/>
<path d="M191.643 186.7L21.8425 212.4C18.0425 213 14.6425 210.2 14.3425 206.4L4.14249 53.4999C3.84249 49.2999 7.34249 45.6999 11.6425 45.9999L181.643 56.7999C184.843 56.9999 187.443 59.4999 187.743 62.7999L197.542 179.2C197.942 182.9 195.343 186.2 191.643 186.7Z" fill="#22272E"/>
<path d="M80.9425 134.3L33.1425 136.9C31.6425 137 30.3425 135.8 30.2425 134.3L27.4425 93.8999C27.3425 92.2999 28.6425 90.8999 30.2425 90.8999L78.0425 91.1999C79.5425 91.1999 80.7425 92.2999 80.8425 93.7999L83.6425 131.3C83.7425 132.9 82.5425 134.2 80.9425 134.3Z" fill="#6DAFA7"/>
<path d="M132.343 118.7L92.3425 120.1C90.8425 120.2 89.5425 119 89.4425 117.5L87.7425 94.2C87.6425 92.6 88.9425 91.2 90.5425 91.2L130.543 91.5C131.943 91.5 133.143 92.5999 133.343 94.0999L135.043 115.7C135.143 117.3 133.943 118.7 132.343 118.7Z" fill="#FFE779"/>
<path d="M177.643 117.2L143.943 118.4C142.443 118.5 141.143 117.3 141.043 115.8L139.343 94.7C139.243 93.1 140.543 91.7 142.143 91.7L175.843 91.8999C177.243 91.8999 178.443 93 178.643 94.5L180.243 114.2C180.443 115.7 179.243 117.1 177.643 117.2Z" fill="#F4C2C9"/>
<path d="M83.9425 173.5L36.1425 178.7C34.5425 178.9 33.1425 177.7 33.0425 176.1L31.2425 150C31.1425 148.5 32.3425 147.1 33.8425 147L81.7425 143.8C83.2425 143.7 84.6425 144.8 84.7425 146.4L86.5425 170.5C86.5425 172 85.4425 173.3 83.9425 173.5Z" stroke="#63737A" stroke-width="1.8" stroke-miterlimit="10" stroke-linecap="round" stroke-linejoin="round"/>
<path d="M136.842 172.5L96.9425 177.2C95.3425 177.4 93.9425 176.2 93.8425 174.6L90.6425 131.5C90.5425 129.9 91.7425 128.6 93.2425 128.5L133.242 126.6C134.742 126.5 136.042 127.7 136.142 129.2L139.342 169.5C139.442 171 138.342 172.3 136.842 172.5Z" fill="#F4C2C9"/>
<path d="M128.542 134.1L99.8425 135.8C99.1425 135.8 98.6425 136.4 98.7425 137.1L100.042 154.9C100.142 155.6 100.642 156.1 101.342 156L130.042 153.5C130.742 153.4 131.242 152.9 131.142 152.2L129.842 135.2C129.742 134.6 129.142 134.1 128.542 134.1Z" fill="#6DAFA7"/>
<path d="M181.642 162.6L147.942 166.3C146.342 166.5 144.942 165.3 144.842 163.7L142.142 129C142.042 127.4 143.242 126.1 144.742 126L178.442 124.4C179.942 124.3 181.242 125.5 181.342 127L184.042 159.6C184.242 161.1 183.142 162.4 181.642 162.6Z" fill="#FFE779"/>
<path d="M59.5425 157L60.1425 164.4" stroke="#63737A" stroke-width="1.8" stroke-miterlimit="10" stroke-linecap="round" stroke-linejoin="round"/>
<path d="M56.3425 161L63.3425 160.4" stroke="#63737A" stroke-width="1.8" stroke-miterlimit="10" stroke-linecap="round" stroke-linejoin="round"/>
<path d="M107.443 165.2C107.243 163.2 105.743 161.6 103.943 161.8C102.143 162 100.743 163.8 100.943 165.9C101.143 168 102.743 169.5 104.543 169.3C106.243 169 107.543 167.2 107.443 165.2Z" fill="#22272E"/>
<path d="M113.243 164.6L131.943 162.7" stroke="#22272E" stroke-width="1.8" stroke-miterlimit="10" stroke-linecap="round" stroke-linejoin="round"/>
<path d="M154.843 135.4C154.643 133.5 153.343 132.1 151.743 132.1C150.143 132.2 149.043 133.8 149.143 135.7C149.343 137.6 150.643 139.1 152.243 139C153.943 138.9 155.043 137.3 154.843 135.4Z" fill="#6DAFA7"/>
<path d="M159.943 135.1L176.043 134.1" stroke="#22272E" stroke-width="1.8" stroke-miterlimit="10" stroke-linecap="round" stroke-linejoin="round"/>
<path d="M155.743 146.1C155.543 144.2 154.243 142.8 152.643 142.9C151.043 143 149.942 144.7 150.042 146.6C150.242 148.5 151.643 150 153.143 149.8C154.743 149.6 155.943 148 155.743 146.1Z" fill="#6DAFA7"/>
<path d="M160.742 145.7L176.942 144.4" stroke="#22272E" stroke-width="1.8" stroke-miterlimit="10" stroke-linecap="round" stroke-linejoin="round"/>
<path d="M156.643 156.8C156.443 154.9 155.143 153.5 153.543 153.6C151.943 153.7 150.843 155.4 150.943 157.3C151.143 159.2 152.543 160.6 154.043 160.5C155.643 160.3 156.743 158.7 156.643 156.8Z" fill="#6DAFA7"/>
<path d="M161.643 156.3L177.743 154.7" stroke="#22272E" stroke-width="1.8" stroke-miterlimit="10" stroke-linecap="round" stroke-linejoin="round"/>
<path d="M44.1425 107.1L37.6425 107.2C37.0425 107.2 36.5425 106.7 36.4425 106.1L35.9425 99.2999C35.9425 98.5999 36.4425 98.0999 37.1425 98.0999H43.6425C44.2425 98.0999 44.7425 98.5999 44.8425 99.1999L45.3425 105.9C45.2425 106.5 44.7425 107.1 44.1425 107.1Z" fill="#FFE779"/>
<path d="M51.1425 98.0999L73.6425 97.9999" stroke="#22272E" stroke-width="1.8" stroke-miterlimit="10" stroke-linecap="round" stroke-linejoin="round"/>
<path d="M51.5425 103.9L74.0425 103.7" stroke="#22272E" stroke-width="1.8" stroke-miterlimit="10" stroke-linecap="round" stroke-linejoin="round"/>
<path d="M152.042 105.5L146.942 105.6C146.642 105.6 146.342 105.3 146.242 105L145.742 98.4999C145.742 98.0999 146.042 97.7999 146.442 97.7999H151.542C151.842 97.7999 152.142 98.0999 152.242 98.3999L152.742 104.8C152.742 105.1 152.442 105.5 152.042 105.5Z" fill="#22272E"/>
<path d="M156.842 97.7H173.542" stroke="#22272E" stroke-width="1.8" stroke-miterlimit="10" stroke-linecap="round" stroke-linejoin="round"/>
<path d="M157.342 102.8L173.942 102.6" stroke="#22272E" stroke-width="1.8" stroke-miterlimit="10" stroke-linecap="round" stroke-linejoin="round"/>
<path d="M146.742 111.1L174.542 110.4" stroke="#22272E" stroke-width="1.8" stroke-miterlimit="10" stroke-linecap="round" stroke-linejoin="round"/>
<path d="M45.2425 122.6L38.7425 122.8C38.1425 122.8 37.5425 122.3 37.5425 121.7L37.0425 114.9C37.0425 114.2 37.5425 113.7 38.1425 113.7L44.6425 113.5C45.2425 113.5 45.7425 114 45.8425 114.6L46.3425 121.3C46.3425 122 45.8425 122.6 45.2425 122.6Z" fill="#FFE779"/>
<path d="M52.2425 113.4L74.7425 112.8" stroke="#22272E" stroke-width="1.8" stroke-miterlimit="10" stroke-linecap="round" stroke-linejoin="round"/>
<path d="M52.6425 119.3L75.1425 118.6" stroke="#22272E" stroke-width="1.8" stroke-miterlimit="10" stroke-linecap="round" stroke-linejoin="round"/>
<path d="M61.6425 74.2L27.9425 73.2C26.8425 73.2 25.9425 72.3 25.8425 71.2L25.4425 65.9C25.3425 64.6 26.4425 63.5 27.6425 63.6L61.3425 65C62.4425 65 63.3425 65.9 63.4425 67L63.8425 71.9C63.9425 73.1 62.9425 74.2 61.6425 74.2Z" fill="#6DAFA7"/>
<path d="M95.7425 97.8999L127.542 97.7999" stroke="#22272E" stroke-width="1.8" stroke-miterlimit="10" stroke-linecap="round" stroke-linejoin="round"/>
<path d="M96.1425 103.5L127.943 103.1" stroke="#22272E" stroke-width="1.8" stroke-miterlimit="10" stroke-linecap="round" stroke-linejoin="round"/>
<path d="M96.7425 112.3L113.842 111.9" stroke="#22272E" stroke-width="1.8" stroke-miterlimit="10" stroke-linecap="round" stroke-linejoin="round"/>
<path d="M176.642 73.6999C176.542 72.1999 175.442 70.8998 174.142 70.7998C172.942 70.6998 171.942 71.9999 172.142 73.4999C172.242 75.0999 173.342 76.3999 174.642 76.3999C175.842 76.4999 176.742 75.1999 176.642 73.6999Z" fill="#63737A"/>
<path d="M167.743 73.3999C167.643 71.7999 166.443 70.4999 165.243 70.4999C163.943 70.3999 163.043 71.6999 163.143 73.2999C163.243 74.8999 164.443 76.1999 165.743 76.1999C166.943 76.1999 167.843 74.8999 167.743 73.3999Z" fill="#63737A"/>
<path d="M158.542 72.9999C158.442 71.3999 157.242 70.0999 155.942 69.9999C154.642 69.8999 153.642 71.1999 153.742 72.7999C153.842 74.3999 155.042 75.6999 156.342 75.7999C157.742 75.8999 158.642 74.5999 158.542 72.9999Z" fill="#63737A"/>
<path d="M217.243 86.8L172.842 86C171.042 86 169.542 84.6 169.442 82.8L165.442 33.9C165.342 32.2 166.742 30.9 168.342 31L212.942 35.7C214.642 35.9 215.942 37.2 216.042 38.9L219.942 83.8C220.042 85.5 218.843 86.8 217.243 86.8Z" fill="#F8AB5D"/>
<path d="M219.643 86L175.243 85.2C173.443 85.2 171.942 83.8 171.842 82L167.842 33.1C167.742 31.4 169.143 30.1 170.743 30.2L215.342 34.9C217.042 35.1 218.342 36.4 218.442 38.1L222.342 83C222.442 84.7 221.143 86 219.643 86Z" fill="#FFE779"/>
<path d="M187.242 39.2999L210.742 41.4999" stroke="#63737A" stroke-width="1.8" stroke-miterlimit="10" stroke-linecap="round" stroke-linejoin="round"/>
<path d="M187.642 44.1L211.142 46.1" stroke="#63737A" stroke-width="1.8" stroke-miterlimit="10" stroke-linecap="round" stroke-linejoin="round"/>
<path d="M188.542 55.1L212.142 56.7" stroke="#63737A" stroke-width="1.8" stroke-miterlimit="10" stroke-linecap="round" stroke-linejoin="round"/>
<path d="M188.942 59.7999L212.442 61.1999" stroke="#63737A" stroke-width="1.8" stroke-miterlimit="10" stroke-linecap="round" stroke-linejoin="round"/>
<path d="M189.942 70.8999L213.442 71.8999" stroke="#63737A" stroke-width="1.8" stroke-miterlimit="10" stroke-linecap="round" stroke-linejoin="round"/>
<path d="M190.342 75.5999L213.842 76.3999" stroke="#63737A" stroke-width="1.8" stroke-miterlimit="10" stroke-linecap="round" stroke-linejoin="round"/>
<path d="M179.142 42L180.342 43.5L182.042 41.2" stroke="#6DAFA7" stroke-width="1.8" stroke-miterlimit="10" stroke-linecap="round" stroke-linejoin="round"/>
<path d="M180.442 58L181.642 59.4L183.442 57.1" stroke="#6DAFA7" stroke-width="1.8" stroke-miterlimit="10" stroke-linecap="round" stroke-linejoin="round"/>
<path d="M181.742 73.7L183.042 75.0999L184.742 72.7" stroke="#6DAFA7" stroke-width="1.8" stroke-miterlimit="10" stroke-linecap="round" stroke-linejoin="round"/>
<path d="M238.342 157.1C238.342 157.1 232.142 170 231.642 178.2C231.142 186.4 239.842 219.3 254.042 244.4C254.042 244.4 267.442 240 267.442 235.9C267.442 231.8 259.542 183.3 260.042 181.9C260.542 180.5 266.042 170.2 266.042 165.8C266.042 161.5 240.442 152.3 238.342 157.1Z" fill="#F4C2C9"/>
<path d="M266.042 165.8C266.042 161.4 240.542 152.3 238.442 157.1C238.442 157.1 237.642 158.9 236.542 161.5C244.642 167.8 253.342 173.2 263.242 175C264.642 171.8 266.042 168 266.042 165.8Z" fill="#E26E85"/>
<path d="M264.942 102.3C264.942 102.3 254.942 105.7 247.342 122.9C239.642 140.2 231.642 154.5 231.642 154.5C231.642 154.5 244.142 166.9 260.142 173.2C276.142 179.7 276.742 103.9 264.942 102.3Z" fill="#22272E"/>
<path d="M234.442 149.4C234.442 149.4 251.542 163.4 267.442 169.5" stroke="#22272E" stroke-width="1.8" stroke-miterlimit="10" stroke-linecap="round" stroke-linejoin="round"/>
<path d="M298.342 475.3C298.342 475.3 297.442 496.3 297.642 498.3C297.842 500.4 290.643 504.6 281.743 504.3C272.943 504 272.042 501.4 272.042 501.4C272.042 501.4 270.042 478.7 269.842 475.5C269.642 472.3 296.542 471 298.342 475.3Z" fill="#F4C2C9"/>
<path d="M297.842 487.4C298.042 481.4 298.342 475.3 298.342 475.3C296.542 471 269.642 472.3 269.842 475.5C269.942 477 270.442 482.6 270.842 488.2C278.742 492.1 289.142 491.1 297.842 487.4Z" fill="#22272E"/>
<path d="M297.642 497.7C297.642 497.7 298.443 503.6 298.743 510C299.043 516.5 300.043 528.1 298.943 530.1C297.743 532.1 291.743 533.8 277.443 534.9C263.143 536 249.942 535 247.642 533.2C245.342 531.4 246.043 528.7 248.243 526.6C250.443 524.5 259.143 515.2 262.743 511.4C267.443 506.4 270.842 501.3 270.842 500.7C271.142 498.3 271.642 498.3 271.642 498.3C271.642 498.3 272.242 499.8 273.042 499.7C273.842 499.6 274.943 495.1 279.743 496.2C284.643 497.3 286.542 500.6 288.342 500.6C290.142 500.5 295.042 499.9 297.642 497.7Z" fill="#22272E"/>
<path d="M335.842 479.5C335.842 479.5 338.542 501.1 339.042 502.4C339.542 503.7 344.542 507.3 352.342 506.9C360.142 506.5 363.143 504.2 363.443 503.7C363.743 503.2 363.242 478.5 363.042 476.9C362.842 475.3 337.642 475.7 335.842 479.5Z" fill="#F4C2C9"/>
<path d="M363.342 488C363.242 482.5 363.043 477.4 362.943 476.7C362.643 475.1 337.642 475.6 335.742 479.4C335.742 479.4 336.342 484.2 337.042 489.4C346.042 491.5 355.042 490.9 363.342 488Z" fill="#22272E"/>
<path d="M338.642 500.5C338.442 502.1 338.342 503.6 338.442 505.2C338.542 506.5 338.642 508.3 338.642 510.5C338.742 515.1 339.142 531 340.242 533.3C341.342 535.6 353.942 537.5 363.442 537.6C372.942 537.7 379.942 535.2 381.042 532.6C382.142 530 381.542 526.2 378.242 522C374.942 517.8 367.342 511.3 366.442 508.2C365.542 505.1 364.142 501.5 363.542 500.5C363.542 500.5 362.242 502.3 360.842 502.7C359.542 503.1 357.642 497.7 353.542 497.5C349.442 497.2 347.642 498.9 345.042 502.7C344.942 502.7 341.342 503 338.642 500.5Z" fill="#22272E"/>
<path d="M250.942 218.7C250.942 218.7 248.542 229.6 247.342 244.3C246.142 259 250.342 350.1 250.942 357.2C251.542 364.3 253.842 404.8 256.442 424.5C258.542 440.7 257.042 473.4 261.942 478C266.842 482.6 281.842 485.1 291.142 482.6C300.442 480.1 304.742 475.5 305.842 471.7C306.942 467.9 302.542 439 302.842 424.3C303.142 409.6 302.842 366.2 302.342 355.9C302.342 355.9 306.442 303.3 311.342 291.3C316.242 279.3 323.342 235.1 309.742 222.3C295.942 209.5 252.142 216.6 250.942 218.7Z" fill="#22272E"/>
<path d="M272.842 224.5C272.842 224.5 272.742 244.3 273.542 259.1C273.842 264.7 274.342 269.6 275.042 272.5C277.542 282.9 282.942 283.7 287.042 286.1C291.142 288.6 305.842 347.4 311.842 362.7C311.842 362.7 316.442 397.9 320.042 418.9C323.542 439.9 323.042 465.3 325.742 474C328.442 482.7 344.242 484.4 351.942 483.7C359.642 483 369.942 480 369.642 471C369.342 462 367.842 436.4 366.542 414.6C365.142 392.8 362.742 360.3 362.142 352.7C362.142 352.7 359.142 316.7 357.542 298.2C355.942 279.7 356.842 260.8 354.442 228.9C351.842 196.9 272.742 206.7 272.842 224.5Z" fill="#22272E"/>
<path d="M273.542 259.1C273.842 264.7 274.342 269.6 275.042 272.5C277.542 282.9 282.942 283.7 287.042 286.1C291.142 288.6 305.842 347.4 311.842 362.7" stroke="#63737A" stroke-width="1.8" stroke-miterlimit="10" stroke-linecap="round" stroke-linejoin="round"/>
<path d="M287.042 286.1C287.042 286.1 275.342 280.1 270.142 282.3" stroke="#63737A" stroke-width="1.8" stroke-miterlimit="10" stroke-linecap="round" stroke-linejoin="round"/>
<path d="M269.142 371.8C276.433 371.8 282.342 365.308 282.342 357.3C282.342 349.292 276.433 342.8 269.142 342.8C261.852 342.8 255.942 349.292 255.942 357.3C255.942 365.308 261.852 371.8 269.142 371.8Z" stroke="#63737A" stroke-width="1.8" stroke-miterlimit="10" stroke-linecap="round" stroke-linejoin="round"/>
<path d="M338.142 370.9C345.654 370.9 351.742 364.408 351.742 356.4C351.742 348.392 345.654 341.9 338.142 341.9C330.631 341.9 324.542 348.392 324.542 356.4C324.542 364.408 330.631 370.9 338.142 370.9Z" stroke="#63737A" stroke-width="1.8" stroke-miterlimit="10" stroke-linecap="round" stroke-linejoin="round"/>
<path d="M274.942 489.7C274.942 489.7 274.642 487.6 274.942 486.7" stroke="#63737A" stroke-width="1.8" stroke-miterlimit="10" stroke-linecap="round" stroke-linejoin="round"/>
<path d="M283.242 491C283.242 491 283.242 487.1 283.242 486.7" stroke="#63737A" stroke-width="1.8" stroke-miterlimit="10" stroke-linecap="round" stroke-linejoin="round"/>
<path d="M293.342 489C293.342 489 293.442 486.5 293.342 485.4" stroke="#63737A" stroke-width="1.8" stroke-miterlimit="10" stroke-linecap="round" stroke-linejoin="round"/>
<path d="M341.342 490.3C341.342 490.3 340.842 487.6 340.842 486.8" stroke="#63737A" stroke-width="1.8" stroke-miterlimit="10" stroke-linecap="round" stroke-linejoin="round"/>
<path d="M351.342 490.7C351.342 490.7 351.542 487.3 351.342 486.4" stroke="#63737A" stroke-width="1.8" stroke-miterlimit="10" stroke-linecap="round" stroke-linejoin="round"/>
<path d="M359.943 489.1C359.943 489.1 360.143 486.8 359.943 485.7" stroke="#63737A" stroke-width="1.8" stroke-miterlimit="10" stroke-linecap="round" stroke-linejoin="round"/>
<path d="M265.542 509.9C265.542 509.9 273.142 503.8 288.042 512.2" stroke="white" stroke-width="1.8" stroke-miterlimit="10" stroke-linecap="round" stroke-linejoin="round"/>
<path d="M259.842 517.6C259.842 517.6 269.242 510.1 283.242 519.2" stroke="white" stroke-width="1.8" stroke-miterlimit="10" stroke-linecap="round" stroke-linejoin="round"/>
<path d="M368.742 514.3C368.742 514.3 359.642 510.3 347.342 516.8" stroke="white" stroke-width="1.8" stroke-miterlimit="10" stroke-linecap="round" stroke-linejoin="round"/>
<path d="M372.842 521.1C372.842 521.1 362.342 516.5 349.642 524.8" stroke="white" stroke-width="1.8" stroke-miterlimit="10" stroke-linecap="round" stroke-linejoin="round"/>
<path d="M313.342 98.8C313.342 98.8 318.343 100.3 328.943 100.5C339.543 100.7 351.642 103.8 356.342 109.7C361.042 115.6 362.542 159.1 361.842 178.8C361.142 198.4 347.042 227.8 347.042 227.8C347.042 227.8 313.342 231.6 285.742 230.3C258.142 228.9 251.542 222.9 249.642 221C247.742 219.1 246.642 214.5 247.742 212.5C248.842 210.6 254.242 195 256.242 180.1C258.142 165.1 254.042 144.4 255.942 126.1C257.842 107.8 264.942 102.4 264.942 102.4C264.942 102.4 273.842 99.4 289.242 98.9C304.542 98.2 313.342 98.8 313.342 98.8Z" fill="#FFE779"/>
<path d="M311.842 151.5C315.432 151.5 318.342 148.59 318.342 145C318.342 141.41 315.432 138.5 311.842 138.5C308.253 138.5 305.342 141.41 305.342 145C305.342 148.59 308.253 151.5 311.842 151.5Z" fill="#F8AB5D"/>
<path d="M290.042 95C287.342 95.1 285.242 96.7 283.342 98.6C282.142 99.8 281.042 101.4 280.542 103.5C276.742 121.9 282.542 144.1 289.942 143.9C299.242 143.6 311.742 126.7 321.542 107.5C325.542 99.6 317.842 94.1 313.342 94.1C309.842 94 295.642 94.7 290.042 95Z" fill="#22272E"/>
<path d="M332.743 56.1001C332.743 56.1001 332.742 64.2001 328.042 72.2001C323.342 80.2001 317.643 84.4001 315.743 88.0001C313.843 91.6001 314.343 82.2001 315.743 77.7001C317.143 73.3001 325.443 49.2001 332.743 56.1001Z" fill="#22272E"/>
<path d="M287.942 86.5001C287.942 86.5001 286.842 96.2001 286.142 99.9001C285.442 103.6 283.842 113.3 296.242 113.9C307.342 114.5 313.342 105.9 315.542 101.7C316.242 100.4 316.542 99.0001 316.442 97.6001C316.142 93.2001 315.542 82.4001 315.842 73.6001C316.242 62.4001 287.942 78.6001 287.942 86.5001Z" fill="#F4C2C9"/>
<path d="M309.943 87.2001C304.043 91.9001 295.342 94.1001 287.142 92.9001C286.842 95.5001 286.442 98.3001 286.142 99.9001C286.042 100.4 285.942 101 285.842 101.7C295.942 102.2 307.443 97.2001 309.943 87.2001Z" fill="#E26E85"/>
<path d="M276.142 50.5C276.142 50.5 273.442 54.4 273.842 57.4C274.242 60.4 279.942 70.5 282.842 70.2C285.742 69.9 288.742 57.5 285.342 53.4C281.842 49.3 277.242 48.6 276.142 50.5Z" fill="#22272E"/>
<path d="M278.443 56.2C278.443 56.2 278.743 63.2 277.443 71.2C276.143 79.2 275.242 91.2 287.142 94.5C299.042 97.8 313.043 93.3 317.443 76.9C321.843 60.5 325.042 43.9 309.842 39.1C294.642 34.3 276.643 40.5 278.443 56.2Z" fill="#F4C2C9"/>
<path d="M283.542 64.2001C283.842 65.3001 283.742 66.6001 283.342 67.8001C283.142 68.4001 282.842 68.9001 282.442 69.4001C282.242 69.7001 282.042 69.9001 281.842 70.1001C281.742 70.2001 281.642 70.4001 281.542 70.5001C281.442 70.8001 281.442 71.1001 281.542 71.4001C281.642 71.8001 281.942 72.2001 282.242 72.6001C282.842 73.4001 283.742 74.1001 284.642 74.7001C283.442 74.8001 282.242 74.4001 281.242 73.6001C280.742 73.2001 280.242 72.7001 279.942 72.0001C279.642 71.3001 279.542 70.4001 279.942 69.7001C280.142 69.3001 280.342 69.0001 280.642 68.8001C280.842 68.6001 281.042 68.5001 281.142 68.3001C281.442 67.9001 281.842 67.5001 282.042 67.1001C282.642 66.2001 283.142 65.3001 283.542 64.2001Z" fill="#22272E"/>
<path d="M316.842 68.8001C316.842 68.8001 315.342 66.5001 314.642 61.9001C314.042 57.3001 309.142 57.6001 306.842 49.1001C304.542 40.6001 298.942 51.1001 290.042 54.9001C281.142 58.7001 274.142 52.6001 270.542 45.8001C267.042 39.1001 273.042 33.0001 277.142 30.2001C281.242 27.4001 285.542 31.9001 293.542 29.9001C301.542 27.9001 314.442 25.4001 320.642 34.4001C326.842 43.4001 333.242 45.6001 332.842 55.4001C332.342 65.2001 320.942 76.1001 320.242 76.2001C319.442 76.4001 316.842 68.8001 316.842 68.8001Z" fill="#22272E"/>
<path d="M295.742 59.4001C295.442 58.6001 295.142 57.1001 296.242 56.3001C297.342 55.5001 299.842 55.8001 302.242 57.3001C304.342 58.6001 304.942 60.7001 303.542 60.5001C302.142 60.3001 301.042 59.7001 299.342 59.6001C297.542 59.5001 296.042 60.1001 295.742 59.4001Z" fill="#22272E"/>
<path d="M283.742 58.3001C283.942 57.6001 284.142 56.3001 283.442 55.4001C282.842 54.6001 281.242 54.7001 279.742 55.8001C278.442 56.8001 278.042 58.7001 278.942 58.6001C279.842 58.5001 280.442 58.1001 281.542 58.2001C282.642 58.3001 283.542 58.9001 283.742 58.3001Z" fill="#22272E"/>
<path d="M276.842 76.3C276.842 76.3 276.743 77.5 278.443 77.8C280.143 78 280.342 75.5 283.242 75.1C285.042 74.9 291.343 75.4 293.943 77.8C296.543 80.2 300.142 83 305.342 81.4C310.542 79.8 313.642 72.5 314.642 61.9C315.542 52.2 319.142 61.6 319.142 63.9C319.142 65.5 317.642 63.2 315.842 69.7C315.042 72.6 315.842 80.8 312.742 86.8C310.342 91.4 303.642 96.1 295.142 96.7C286.642 97.3 279.642 93.8 277.542 88.2C275.442 82.8 276.242 76.7 276.842 76.3Z" fill="#22272E"/>
<path d="M280.942 65.8C281.742 65.9 282.442 65.3 282.542 64.5L282.642 63.7C282.742 62.9 282.142 62.2 281.342 62.1C280.542 62 279.842 62.6 279.742 63.4L279.642 64.2C279.542 65 280.142 65.7 280.942 65.8Z" fill="#22272E"/>
<path d="M296.842 66.8C297.642 66.9 298.342 66.3 298.442 65.5L298.542 64.7C298.642 63.9 298.042 63.2 297.242 63.1C296.442 63 295.742 63.6 295.642 64.4L295.542 65.2C295.442 66.1 296.042 66.8 296.842 66.8Z" fill="#22272E"/>
<path d="M315.742 69.7001C315.742 69.7001 318.442 63.7001 323.142 64.4001C327.942 65.2001 325.542 77.8001 316.842 77.7001" fill="#F4C2C9"/>
<path d="M322.842 68.9C322.542 68.6 322.242 68.3 322.042 68.2C321.742 68.1 321.842 68.3 321.642 68.4C321.642 68.5 321.442 69.3 321.342 70C321.242 70.7 321.042 71.5 320.642 72.2C320.442 72.6 320.242 73 319.842 73.3C319.442 73.6 318.942 73.7 318.542 73.5C318.942 73.3 319.042 73 319.142 72.7C319.242 72.4 319.242 72.1 319.342 71.8C319.442 71.1 319.442 70.4 319.642 69.6C319.742 69.2 319.843 68.8 319.943 68.4C320.043 68.2 320.142 68 320.242 67.8C320.342 67.7 320.342 67.6 320.542 67.5C320.642 67.4 320.843 67.3 320.943 67.2C321.143 67.1 321.442 67 321.842 67C322.242 67.1 322.442 67.3 322.642 67.5C322.942 68 322.942 68.5 322.842 68.9Z" fill="#22272E"/>
<path d="M287.943 81.9C287.943 81.9 290.642 83.1 293.342 82.6" stroke="#F4C2C9" stroke-width="1.8" stroke-miterlimit="10" stroke-linecap="round" stroke-linejoin="round"/>
<path d="M283.115 62.9247C283.593 57.9216 281.306 53.6104 278.007 53.2955C274.708 52.9806 271.647 56.7812 271.169 61.7844C270.692 66.7875 272.979 71.0987 276.278 71.4136C279.576 71.7285 282.638 67.9279 283.115 62.9247Z" stroke="#22272E" stroke-width="1.8" stroke-miterlimit="10" stroke-linecap="round" stroke-linejoin="round"/>
<path d="M305.353 64.8723C305.831 59.8692 302.786 55.4857 298.553 55.0815C294.319 54.6774 290.5 58.4057 290.022 63.4089C289.545 68.412 292.589 72.7955 296.823 73.1996C301.056 73.6038 304.875 69.8755 305.353 64.8723Z" stroke="#22272E" stroke-width="1.8" stroke-miterlimit="10" stroke-linecap="round" stroke-linejoin="round"/>
<path d="M282.842 64.4001C282.842 64.4001 284.543 61.2001 289.943 65.0001" stroke="#22272E" stroke-width="1.8" stroke-miterlimit="10" stroke-linecap="round" stroke-linejoin="round"/>
<path d="M305.242 64.9L316.542 67.3" stroke="#22272E" stroke-width="1.8" stroke-miterlimit="10" stroke-linecap="round" stroke-linejoin="round"/>
<path d="M348.542 175.3L353.842 186C353.842 186 348.242 193.6 342.242 208C336.242 222.4 331.842 240.2 327.742 245.3C327.742 245.3 331.742 254.9 341.542 259.1C341.542 259.1 360.642 231.1 369.342 218.9C378.042 206.7 386.342 191.1 385.742 183.3C384.842 171.8 376.142 154.8 375.342 150.2C374.542 145.6 348.742 162 348.542 175.3Z" fill="#F4C2C9"/>
<path d="M375.242 150.2C374.542 145.7 348.742 162 348.542 175.3L349.342 176.8C358.442 169.9 368.642 165.2 379.542 161.9C377.442 156.7 375.542 152.2 375.242 150.2Z" fill="#E26E85"/>
<path d="M332.742 234.9C334.142 237.3 338.942 243.7 350.142 246.3C350.542 246.4 350.642 246.8 350.442 247.1L345.342 254C345.242 254.2 344.942 254.2 344.742 254.2C332.242 250.4 328.942 244.1 328.442 242.9C328.342 242.8 328.342 242.6 328.442 242.5L331.842 235C332.042 234.5 332.542 234.5 332.742 234.9Z" fill="#22272E"/>
<path d="M339.816 247.039C341.194 244.774 340.551 241.867 338.38 240.547C336.21 239.227 333.333 239.993 331.956 242.258C330.578 244.523 331.221 247.429 333.392 248.75C335.563 250.07 338.439 249.304 339.816 247.039Z" fill="white"/>
<path d="M351.443 108.9C353.843 108.5 356.242 109.4 357.742 111.3C360.042 114.2 363.842 119.8 368.542 129.4C376.442 145.5 381.943 156.1 381.943 156.1C381.943 156.1 354.542 170.9 348.542 175.3C348.542 175.3 337.442 156.6 333.842 148.8C330.342 141.4 331.343 112.6 351.443 108.9Z" fill="#22272E"/>
<path d="M345.142 169.5C345.142 169.5 360.142 158.3 378.842 150.1" stroke="#22272E" stroke-width="1.8" stroke-miterlimit="10" stroke-linecap="round" stroke-linejoin="round"/>
<path d="M323.842 238.7C323.842 238.7 328.542 256.2 347.842 262.3" stroke="#63737A" stroke-width="1.8" stroke-miterlimit="10" stroke-linecap="round" stroke-linejoin="round"/>
<path d="M353.842 186C353.842 186 356.442 182.6 362.042 181.3" stroke="#E26E85" stroke-width="1.8" stroke-miterlimit="10" stroke-linecap="round" stroke-linejoin="round"/>
<path d="M502.043 211L413.543 200.1C410.643 199.7 408.643 197.2 408.943 194.3L418.343 106.5C418.743 103.1 421.343 100.4 424.743 99.9L516.343 87.5C519.743 87 522.743 89.9 522.343 93.4L508.743 205.9C508.343 209.1 505.343 211.4 502.043 211Z" fill="#63737A"/>
<path d="M499.043 210.7L410.543 199.7C407.643 199.3 405.643 196.8 405.943 193.9L415.343 106.1C415.743 102.7 418.343 100 421.743 99.5L513.343 87.1C516.743 86.6 519.743 89.5 519.343 93L505.743 205.5C505.343 208.7 502.343 211.1 499.043 210.7Z" fill="#22272E"/>
<path d="M495.743 129.1L426.443 132.6C425.243 132.7 424.243 131.6 424.443 130.5L426.142 115C426.242 114.1 426.942 113.4 427.842 113.3L497.743 106.4C498.943 106.3 500.042 107.3 499.842 108.6L497.542 127.6C497.542 128.3 496.743 129 495.743 129.1Z" fill="#6DAFA7"/>
<path d="M444.142 118.7L490.043 115" stroke="#22272E" stroke-width="1.8" stroke-miterlimit="10" stroke-linecap="round" stroke-linejoin="round"/>
<path d="M443.543 124.6L468.243 122.9" stroke="#22272E" stroke-width="1.8" stroke-miterlimit="10" stroke-linecap="round" stroke-linejoin="round"/>
<path d="M436.18 123.575C437.072 121.923 436.691 119.988 435.33 119.254C433.969 118.52 432.143 119.264 431.252 120.917C430.36 122.569 430.741 124.504 432.102 125.238C433.463 125.972 435.289 125.228 436.18 123.575Z" fill="#22272E"/>
<path d="M491.842 160.8L423.342 159.6C422.242 159.6 421.343 158.6 421.443 157.5L423.142 142.1C423.242 141.1 424.042 140.4 425.042 140.4L494.042 138.2C495.242 138.2 496.142 139.2 496.042 140.4L493.842 159.2C493.742 160 492.842 160.8 491.842 160.8Z" fill="#F4C2C9"/>
<path d="M441.043 146.9L486.443 146.3" stroke="#22272E" stroke-width="1.8" stroke-miterlimit="10" stroke-linecap="round" stroke-linejoin="round"/>
<path d="M440.342 152.7H464.842" stroke="#22272E" stroke-width="1.8" stroke-miterlimit="10" stroke-linecap="round" stroke-linejoin="round"/>
<path d="M433.194 151.175C434.011 149.484 433.585 147.587 432.242 146.939C430.899 146.29 429.149 147.135 428.332 148.826C427.515 150.516 427.941 152.413 429.284 153.061C430.627 153.71 432.377 152.865 433.194 151.175Z" fill="#22272E"/>
<path d="M488.043 192.2L420.343 186.4C419.243 186.3 418.443 185.3 418.543 184.3L420.243 169C420.343 168 421.243 167.2 422.243 167.3L490.443 169.8C491.543 169.8 492.443 170.8 492.343 172L490.143 190.6C490.043 191.5 489.043 192.2 488.043 192.2Z" fill="#FFE779"/>
<path d="M437.943 174.9L482.743 177.3" stroke="#22272E" stroke-width="1.8" stroke-miterlimit="10" stroke-linecap="round" stroke-linejoin="round"/>
<path d="M437.243 180.6L461.443 182.3" stroke="#22272E" stroke-width="1.8" stroke-miterlimit="10" stroke-linecap="round" stroke-linejoin="round"/>
<path d="M430.357 177.945C431.097 176.219 430.585 174.344 429.214 173.756C427.844 173.169 426.133 174.092 425.394 175.818C424.654 177.544 425.166 179.42 426.537 180.007C427.907 180.594 429.618 179.671 430.357 177.945Z" fill="#22272E"/>
</g>
</svg>
