<svg width="251" height="56" viewBox="0 0 251 56" fill="none" xmlns="http://www.w3.org/2000/svg">
<circle cx="30.5" cy="25.5" r="25.5" fill="url(#paint0_radial)"/>
<path d="M13.5555 28.7765L27.1111 49.726L6.77777 50.9583L13.5555 28.7765Z" fill="#F8AA57"/>
<path d="M13.5556 28.7765L6.77778 50.9583L0 49.726L13.5556 28.7765Z" fill="#C48B44"/>
<path d="M48.5741 30.625L61 49.8287L42.3611 50.9583L48.5741 30.625Z" fill="#F8AA57"/>
<path d="M48.5741 30.625L42.3611 50.9583L36.1481 49.8287L48.5741 30.625Z" fill="#C48B44"/>
<path d="M29.6528 25L48.2917 53.8055L20.3333 55.5L29.6528 25Z" fill="#F8AA57"/>
<path d="M29.6528 25L20.3333 55.5L11.0139 53.8055L29.6528 25Z" fill="#C48B44"/>
<path d="M98.328 44.848C98.3707 44.8693 98.392 44.912 98.392 44.976C98.3493 45.1253 98.264 45.1573 98.136 45.072C96.28 43.7707 95.352 41.8613 95.352 39.344C95.352 38.2987 95.5547 37.1893 95.96 36.016C96.3867 34.8213 97.1333 33.392 98.2 31.728C99.2667 30.064 100.301 28.624 101.304 27.408C102.307 26.192 103.267 25.0613 104.184 24.016C105.123 22.9493 105.613 22.3733 105.656 22.288C105.912 21.904 106.083 21.9467 106.168 22.416C106.189 22.5653 106.2 22.736 106.2 22.928C106.2 23.12 106.147 23.2907 106.04 23.44C104.717 25.0613 103.437 26.896 102.2 28.944C100.131 32.4 98.648 35.5467 97.752 38.384C97.4107 39.5147 97.24 40.688 97.24 41.904C97.24 43.12 97.6027 44.1013 98.328 44.848ZM71.704 33.648C75.2027 32.1973 79.416 31.472 84.344 31.472C86.776 31.472 89.208 31.856 91.64 32.624C92.216 32.0267 93.0693 31.1413 94.2 29.968C95.3307 28.7733 96.2267 27.8347 96.888 27.152C98.808 25.168 100.376 23.7067 101.592 22.768C103.64 21.168 105.517 20.368 107.224 20.368C107.992 20.368 108.696 20.496 109.336 20.752C109.976 20.9867 110.36 21.1787 110.488 21.328C110.616 21.456 110.68 21.5307 110.68 21.552C110.68 21.5733 110.659 21.616 110.616 21.68C110.573 21.7227 110.509 21.6907 110.424 21.584C110.019 21.2 109.229 21.008 108.056 21.008C106.072 21.008 103.981 21.872 101.784 23.6C100.205 24.88 98.8933 26.0533 97.848 27.12C96.8027 28.1653 95.704 29.2853 94.552 30.48C93.4213 31.6533 92.6533 32.4427 92.248 32.848C94.3813 33.6373 95.544 34.672 95.736 35.952C95.7573 36.08 95.7467 36.1653 95.704 36.208C95.6827 36.2507 95.64 36.2507 95.576 36.208C95.5333 36.1653 95.5013 36.1013 95.48 36.016C95.3093 35.6107 94.712 35.2907 93.688 35.056C92.7707 34.8427 91.7147 34.6827 90.52 34.576C86.1893 38.7573 82.36 41.4133 79.032 42.544C77.2187 43.184 75.5013 43.504 73.88 43.504C70.9787 43.504 68.9627 43.0667 67.832 42.192C66.7227 41.3387 66.168 40.3893 66.168 39.344C66.168 38.9387 66.2427 38.5227 66.392 38.096C67.032 36.3467 68.8027 34.864 71.704 33.648ZM87.736 34.448C84.8987 34.448 81.912 34.7467 78.776 35.344C73.9547 36.1973 70.8187 37.4667 69.368 39.152C68.92 39.6853 68.696 40.1867 68.696 40.656C68.696 41.2107 68.9947 41.712 69.592 42.16C70.296 42.6933 71.512 42.96 73.24 42.96C74.9893 42.96 76.8773 42.672 78.904 42.096C81.9333 41.1573 85.5387 38.6293 89.72 34.512C89.0587 34.4693 88.3973 34.448 87.736 34.448ZM108.801 34.192C108.801 33.9147 108.598 33.776 108.193 33.776C107.467 33.776 106.582 34.288 105.537 35.312C105.281 35.568 104.811 36.1013 104.129 36.912C103.467 37.7227 102.817 38.6507 102.177 39.696L101.377 41.456L101.473 41.136C101.43 41.2213 101.387 41.3493 101.345 41.52C101.238 41.776 100.929 41.9893 100.417 42.16C100.31 42.2027 100.214 42.224 100.129 42.224C99.9154 42.224 99.8941 42.064 100.065 41.744C100.15 41.5307 100.449 40.7733 100.961 39.472C101.473 38.1493 101.889 37.0933 102.209 36.304C101.377 37.2213 100.598 37.968 99.8727 38.544C99.6594 38.7147 99.5101 38.736 99.4247 38.608C99.4034 38.5867 99.3927 38.544 99.3927 38.48C99.3927 38.416 99.4887 38.2987 99.6807 38.128C100.982 36.9973 102.006 35.952 102.753 34.992C103.307 33.6907 104.321 31.888 105.793 29.584C107.286 27.2587 108.811 25.3387 110.369 23.824C111.414 22.7787 112.545 22.0747 113.761 21.712C114.315 21.5413 114.827 21.456 115.297 21.456C115.787 21.456 116.235 21.5947 116.641 21.872C117.067 22.128 117.281 22.6187 117.281 23.344C117.281 24.304 116.961 25.2747 116.321 26.256C115.681 27.2373 114.55 28.336 112.929 29.552C111.307 30.7467 109.803 31.6427 108.417 32.24C108.161 32.3467 108.011 32.336 107.969 32.208C107.926 32.0587 108.033 31.9307 108.289 31.824C109.526 31.2693 110.913 30.3947 112.449 29.2C114.006 28.0053 115.041 26.992 115.553 26.16C116.086 25.3067 116.353 24.624 116.353 24.112C116.353 23.5787 116.129 23.312 115.681 23.312C115.169 23.312 114.358 23.7387 113.249 24.592C111.606 25.9147 109.878 27.76 108.065 30.128C106.273 32.496 104.726 34.8853 103.425 37.296C104.022 36.4427 104.566 35.7387 105.057 35.184C106.251 33.84 107.414 33.168 108.545 33.168C109.611 33.168 110.241 33.6373 110.433 34.576C110.454 34.704 110.465 34.8853 110.465 35.12C110.465 35.3547 110.379 35.7067 110.209 36.176C110.059 36.624 109.611 37.4667 108.865 38.704C108.139 39.92 107.777 40.656 107.777 40.912C107.777 41.168 107.862 41.296 108.033 41.296C108.267 41.296 108.619 41.1467 109.089 40.848C110.283 40.1013 111.841 38.8427 113.761 37.072C114.017 36.816 114.134 36.7733 114.113 36.944C114.113 37.1147 114.049 37.2747 113.921 37.424C112.342 39.0453 110.71 40.4 109.025 41.488C108.235 42 107.521 42.256 106.881 42.256C106.71 42.256 106.55 42.2347 106.401 42.192C105.569 42.0213 105.153 41.5627 105.153 40.816C105.153 40.048 105.451 39.1947 106.049 38.256C106.155 38.1067 106.55 37.6053 107.233 36.752C108.278 35.472 108.801 34.6187 108.801 34.192ZM127.725 34.864C127.725 35.6533 127.053 36.9547 125.709 38.768C124.898 39.856 124.493 40.528 124.493 40.784C124.493 41.04 124.621 41.168 124.877 41.168C125.154 41.168 125.538 41.008 126.029 40.688C127.245 39.856 128.461 38.8533 129.677 37.68C129.847 37.5093 129.965 37.4667 130.029 37.552C130.093 37.6373 130.125 37.7013 130.125 37.744C130.125 37.7867 129.89 38.032 129.421 38.48C128.951 38.928 128.429 39.3973 127.853 39.888C127.298 40.3787 126.594 40.8907 125.741 41.424C124.887 41.936 124.183 42.192 123.629 42.192C122.477 42.192 121.901 41.68 121.901 40.656C121.901 40.2933 121.965 39.8667 122.093 39.376C122.37 38.544 123.575 36.9333 125.709 34.544C125.986 34.2453 126.125 34.0107 126.125 33.84C126.125 33.6693 125.911 33.584 125.485 33.584C125.058 33.584 124.386 33.9573 123.469 34.704C123.149 34.96 122.754 35.344 122.285 35.856C121.815 36.3467 121.261 37.1467 120.621 38.256C120.002 39.3653 119.543 40.3467 119.245 41.2C119.117 41.584 118.861 41.776 118.477 41.776C118.391 41.776 118.285 41.7653 118.157 41.744C117.751 41.6373 117.591 41.4453 117.677 41.168C119.341 38.2027 120.333 36.3467 120.653 35.6C120.973 34.8533 121.133 34.32 121.133 34C121.133 33.68 121.005 33.52 120.749 33.52C119.618 33.52 117.997 35.3653 115.885 39.056C115.117 40.2507 114.498 41.104 114.029 41.616C113.559 42.128 113.133 42.384 112.748 42.384C112.706 42.384 112.663 42.384 112.62 42.384C112.066 42.384 111.522 42.16 110.988 41.712C111.116 41.52 111.426 41.104 111.916 40.464C113.005 39.1413 113.954 37.8613 114.765 36.624C113.847 37.5413 113.069 38.256 112.428 38.768C112.215 38.9387 112.098 38.9493 112.076 38.8C112.034 38.6507 112.076 38.5227 112.204 38.416C112.332 38.288 112.546 38.096 112.845 37.84C113.143 37.5627 113.335 37.3813 113.421 37.296C113.527 37.2107 113.709 37.0507 113.965 36.816C114.242 36.56 114.445 36.3573 114.573 36.208C115.17 35.504 115.607 34.9067 115.885 34.416C115.991 34.16 116.034 33.9147 116.013 33.68C116.013 33.424 115.959 33.264 115.853 33.2C115.767 33.1147 115.735 33.0187 115.757 32.912C115.757 32.7413 115.842 32.656 116.013 32.656C116.098 32.656 116.194 32.6773 116.301 32.72C116.962 33.0187 117.293 33.6693 117.293 34.672C117.293 35.2693 117.175 35.92 116.941 36.624C117.367 35.9627 117.826 35.312 118.317 34.672C119.191 33.5413 120.066 32.976 120.941 32.976C121.538 32.976 121.837 33.3173 121.837 34C121.837 34.64 121.389 35.7813 120.493 37.424C121.389 36.272 122.082 35.4293 122.573 34.896C123.703 33.7227 124.791 33.136 125.837 33.136C126.946 33.136 127.575 33.616 127.725 34.576C127.725 34.6827 127.725 34.7787 127.725 34.864ZM136.863 37.008C137.994 36.3893 138.559 35.76 138.559 35.12C138.559 34.48 138.175 34.16 137.407 34.16C137.044 34.16 136.66 34.256 136.255 34.448C135.359 34.8533 134.495 35.5573 133.663 36.56C132.639 37.7973 132.127 38.9493 132.127 40.016C132.127 40.4213 132.234 40.8053 132.447 41.168C132.682 41.5093 133.087 41.68 133.663 41.68C134.666 41.68 135.935 41.1573 137.471 40.112C139.007 39.0453 140.33 37.9787 141.439 36.912C141.695 36.656 141.823 36.6453 141.823 36.88C141.823 37.0293 141.759 37.1573 141.631 37.264C140.842 37.9893 140.308 38.48 140.031 38.736C139.775 38.9707 139.252 39.408 138.463 40.048C137.674 40.6667 137.034 41.104 136.543 41.36C135.028 42.1493 133.738 42.544 132.671 42.544C131.626 42.544 130.794 42.3093 130.175 41.84C129.578 41.3493 129.279 40.6773 129.279 39.824C129.279 38.0107 130.09 36.4533 131.711 35.152C133.332 33.8293 135.028 33.168 136.799 33.168C137.994 33.168 138.794 33.424 139.199 33.936C139.37 34.192 139.455 34.4693 139.455 34.768C139.455 35.0453 139.359 35.3547 139.167 35.696C138.783 36.3573 138.058 36.944 136.991 37.456C135.946 37.9467 134.954 38.192 134.015 38.192C133.652 38.192 133.45 38.16 133.407 38.096C133.386 38.032 133.418 37.9893 133.503 37.968C133.588 37.9253 133.706 37.904 133.855 37.904C134.708 37.904 135.711 37.6053 136.863 37.008ZM149.625 40.528C149.219 41.6373 149.017 42.544 149.017 43.248C149.017 43.952 149.166 44.4853 149.465 44.848C149.529 44.9333 149.539 44.9867 149.497 45.008C149.454 45.0507 149.422 45.072 149.401 45.072C149.379 45.072 149.347 45.0613 149.305 45.04C148.622 44.4853 148.281 43.6533 148.281 42.544C148.281 41.456 148.505 40.1973 148.953 38.768C148.078 39.8987 147.214 40.8267 146.361 41.552C145.337 42.4053 144.291 42.832 143.225 42.832C142.542 42.832 141.902 42.5973 141.305 42.128C140.707 41.68 140.409 40.9333 140.409 39.888C140.387 39.376 140.483 38.7893 140.697 38.128C140.27 38.512 140.003 38.7467 139.896 38.832C139.768 38.9173 139.683 38.9173 139.64 38.832C139.598 38.7467 139.576 38.672 139.576 38.608C139.576 38.5227 139.651 38.4267 139.8 38.32C139.928 38.192 140.665 37.4027 142.009 35.952C142.798 35.0773 143.737 34.3947 144.825 33.904C145.913 33.4133 146.947 33.168 147.929 33.168C148.825 33.168 149.475 33.328 149.881 33.648C150.307 33.9467 150.521 34.3307 150.521 34.8C151.289 33.1787 152.11 31.6427 152.985 30.192C153.881 28.72 154.574 27.7067 155.065 27.152C155.598 26.5547 156.27 26.256 157.081 26.256C157.891 26.256 158.553 26.48 159.065 26.928C158.617 27.2053 157.742 28.1227 156.441 29.68C155.139 31.2373 153.87 32.912 152.633 34.704C151.395 36.4747 150.393 38.416 149.625 40.528ZM149.881 34.48C149.881 34.0533 149.614 33.84 149.081 33.84C148.803 33.84 148.441 33.9253 147.993 34.096C146.99 34.48 145.998 35.2267 145.016 36.336C143.801 37.7227 143.193 39.0453 143.193 40.304C143.193 41.0507 143.438 41.4987 143.929 41.648C144.035 41.6907 144.142 41.712 144.249 41.712C145.123 41.712 146.425 40.8373 148.153 39.088C148.622 38.64 149.017 38.16 149.337 37.648C149.507 37.1573 149.731 36.592 150.009 35.952C149.817 36.08 149.657 36.1013 149.529 36.016C149.422 35.9093 149.454 35.696 149.625 35.376C149.795 35.0347 149.881 34.736 149.881 34.48ZM188.99 25.776C188.99 24.7733 187.816 24.08 185.47 23.696C184.104 23.4827 182.536 23.376 180.766 23.376C179.016 23.376 177.086 23.4827 174.974 23.696C169.726 24.2293 165.886 24.9973 163.454 26C161.512 26.768 161 27.6107 161.918 28.528C162.024 28.6347 162.003 28.688 161.854 28.688C161.704 28.688 161.576 28.6347 161.47 28.528C161.107 28.1653 160.925 27.7493 160.925 27.28C160.925 26.7893 161.032 26.3307 161.245 25.904C161.438 25.456 161.8 24.9973 162.334 24.528C162.867 24.0587 163.507 23.6747 164.254 23.376C166.536 22.48 169.192 21.84 172.222 21.456C173.992 21.2427 175.55 21.136 176.894 21.136C180.755 21.136 183.955 21.6267 186.494 22.608C188.158 23.2693 189.203 23.9733 189.63 24.72C189.864 25.104 189.982 25.488 189.982 25.872C189.982 26.256 189.864 26.6507 189.63 27.056C189.352 27.44 189.054 27.664 188.734 27.728C188.414 27.792 188.264 27.7387 188.286 27.568C188.328 27.376 188.456 27.1093 188.67 26.768C188.883 26.4267 188.99 26.096 188.99 25.776ZM170.174 40.368C170.024 41.328 169.95 41.9893 169.95 42.352C169.95 43.5467 170.323 44.24 171.07 44.432C171.176 44.4747 171.294 44.496 171.422 44.496L172.286 44.144C172.456 43.9947 172.542 43.9733 172.542 44.08C172.542 44.1867 172.478 44.2827 172.35 44.368C172.008 44.6667 171.56 44.816 171.006 44.816C170.899 44.816 170.792 44.816 170.686 44.816C168.787 44.6667 167.838 43.5787 167.838 41.552C167.838 40.4427 168.083 39.184 168.574 37.776C169.064 36.368 169.79 34.9387 170.75 33.488C171.71 32.016 173.8 29.0187 177.022 24.496C177.278 24.1547 177.47 23.984 177.597 23.984C177.747 23.984 177.854 24.016 177.918 24.08C177.982 24.144 178.014 24.208 178.014 24.272C178.014 24.336 178.003 24.3893 177.982 24.432C173.438 31.1947 170.835 36.5067 170.174 40.368ZM187.057 37.072C186.823 37.3493 186.577 37.648 186.321 37.968C186.087 38.288 185.777 38.7253 185.393 39.28C185.031 39.8347 184.849 40.304 184.849 40.688C184.849 41.072 185.009 41.264 185.329 41.264C185.671 41.264 186.215 41.0613 186.961 40.656C188.455 39.8027 190.108 38.5227 191.921 36.816C192.135 36.6027 192.273 36.5707 192.337 36.72C192.337 36.7413 192.337 36.784 192.337 36.848C192.337 36.912 192.295 36.9867 192.209 37.072C188.54 40.528 185.873 42.256 184.209 42.256C183.719 42.256 183.303 42.096 182.961 41.776C182.641 41.4347 182.481 41.04 182.481 40.592C182.481 40.144 182.673 39.4613 183.057 38.544C182.097 39.7387 181.063 40.6667 179.953 41.328C178.865 41.968 178.012 42.288 177.393 42.288C176.775 42.288 176.241 42.1067 175.793 41.744C175.367 41.36 175.153 40.8907 175.153 40.336C175.153 38.7573 175.857 37.2107 177.265 35.696C178.332 34.5653 179.655 33.7653 181.233 33.296C181.937 33.0613 182.62 32.944 183.281 32.944C183.964 32.944 184.615 33.136 185.233 33.52C185.873 33.8827 186.279 34.32 186.449 34.832C187.089 34.832 187.548 35.0667 187.825 35.536C187.868 35.6 187.889 35.7067 187.889 35.856C187.889 36.0053 187.804 36.176 187.633 36.368C187.484 36.56 187.292 36.7947 187.057 37.072ZM184.721 33.904C184.273 33.904 183.74 34.0427 183.121 34.32C182.033 34.7893 180.999 35.6 180.017 36.752C178.46 38.5867 177.681 39.9307 177.681 40.784C177.681 41.232 177.863 41.456 178.225 41.456C178.524 41.456 179.015 41.264 179.697 40.88C180.401 40.496 181.319 39.7387 182.449 38.608C182.513 38.544 182.759 38.3093 183.185 37.904C183.612 37.4987 183.975 37.1467 184.273 36.848C185.276 35.8027 185.777 35.056 185.777 34.608C185.777 34.1387 185.425 33.904 184.721 33.904ZM205.215 37.552C205.108 37.936 205.055 38.2987 205.055 38.64C205.055 38.96 205.183 39.12 205.439 39.12C205.716 39.12 206.153 38.8747 206.751 38.384C207.348 37.8933 207.743 37.552 207.935 37.36C208.127 37.168 208.223 37.2 208.223 37.456C208.223 37.5627 208.191 37.648 208.127 37.712C207.444 38.3947 206.943 38.8533 206.623 39.088C206.025 39.5573 205.513 39.792 205.087 39.792C204.404 39.792 204.02 39.408 203.935 38.64C201.887 41.0507 200.255 42.256 199.039 42.256C198.292 42.256 197.737 42.096 197.375 41.776C197.033 41.456 196.863 41.1147 196.863 40.752C196.863 40.3893 196.916 39.952 197.023 39.44C195.316 41.3173 193.919 42.256 192.831 42.256C192.084 42.256 191.529 42.096 191.167 41.776C190.804 41.4347 190.623 41.0613 190.623 40.656C190.623 39.8667 190.761 39.248 191.039 38.8C191.316 38.352 191.785 37.7333 192.447 36.944C191.103 38.0747 190.377 38.6933 190.271 38.8C190.143 38.9067 190.068 38.8853 190.047 38.736C190.047 38.544 190.164 38.3413 190.399 38.128C190.911 37.744 191.711 36.9973 192.799 35.888C193.908 34.7787 194.665 34.1173 195.071 33.904C195.497 33.6907 195.839 33.584 196.095 33.584C196.372 33.584 196.575 33.6267 196.703 33.712C196.831 33.776 196.863 33.8507 196.799 33.936C196.18 34.5547 195.572 35.4293 194.975 36.56C194.164 38.1387 193.759 39.3973 193.759 40.336C193.759 40.4853 193.769 40.6133 193.791 40.72C193.919 41.1253 194.335 41.0933 195.039 40.624C195.295 40.4533 195.583 40.2293 195.903 39.952C196.244 39.6533 196.959 38.8 198.047 37.392C199.156 35.984 199.935 35.1627 200.383 34.928C200.831 34.6933 201.193 34.576 201.471 34.576C201.748 34.576 201.961 34.6507 202.111 34.8C202.281 34.928 202.324 35.0347 202.239 35.12C201.151 36.272 200.415 37.7547 200.031 39.568C199.903 40.3147 199.913 40.7413 200.063 40.848C200.212 40.9333 200.351 40.976 200.479 40.976C200.628 40.9547 200.799 40.8907 200.991 40.784C201.844 40.3147 202.804 39.408 203.871 38.064C203.935 36.0587 204.372 34.608 205.183 33.712C205.524 33.2853 206.185 33.072 207.167 33.072C207.593 33.072 207.785 33.2 207.743 33.456L207.551 33.776C206.249 35.376 205.471 36.6347 205.215 37.552ZM222.321 28.88C222.321 28.9653 222.279 29.008 222.193 29.008C222.129 29.008 222.087 28.9547 222.065 28.848C221.937 28.3573 221.692 27.984 221.329 27.728C220.967 27.4507 220.647 27.312 220.369 27.312C220.113 27.2907 219.879 27.28 219.665 27.28C218.897 27.28 218.183 27.4933 217.521 27.92C216.263 28.7307 214.801 30.2667 213.137 32.528C214.311 32.6347 215.1 32.848 215.505 33.168C216.295 33.7653 216.615 34.2027 216.465 34.48C216.423 34.5867 216.231 34.544 215.889 34.352C215.548 34.1387 215.025 34.032 214.321 34.032C213.617 34.032 212.796 34.16 211.857 34.416C210.385 36.5707 209.297 38.7787 208.593 41.04C208.295 42.0213 208.145 42.832 208.145 43.472C208.145 44.112 208.284 44.592 208.561 44.912C208.647 44.9973 208.657 45.0507 208.593 45.072C208.529 45.0933 208.487 45.104 208.465 45.104C208.444 45.104 208.423 45.0933 208.401 45.072C207.612 44.432 207.217 43.4187 207.217 42.032C207.217 40.6453 207.868 38.448 209.169 35.44C209.063 35.4827 208.977 35.4827 208.913 35.44C208.871 35.3973 208.807 35.3013 208.721 35.152C208.657 35.0027 208.604 34.8213 208.561 34.608C208.519 34.3733 208.519 34.1493 208.561 33.936C208.625 33.7013 208.785 33.4667 209.041 33.232C209.34 32.976 209.841 32.7733 210.545 32.624C212.124 29.7013 213.649 27.7387 215.121 26.736C216.103 26.0747 217.116 25.744 218.161 25.744C219.207 25.744 220.103 26 220.849 26.512C221.831 27.1947 222.321 27.984 222.321 28.88ZM221.809 32.24C221.574 32.048 221.478 31.7707 221.521 31.408C221.563 31.0453 221.755 30.6613 222.097 30.256C222.438 29.8507 222.897 29.648 223.473 29.648C223.643 29.648 223.825 29.7333 224.017 29.904C224.209 30.0533 224.283 30.32 224.241 30.704C224.198 31.0667 224.027 31.4187 223.729 31.76C223.43 32.08 223.089 32.2933 222.705 32.4C222.342 32.4853 222.043 32.432 221.809 32.24ZM221.393 33.936C220.518 34.832 219.782 35.9733 219.185 37.36C218.609 38.7253 218.321 39.6853 218.321 40.24C218.321 40.7947 218.534 41.072 218.961 41.072C219.409 41.072 220.134 40.752 221.137 40.112C222.161 39.472 223.323 38.5653 224.625 37.392C224.902 37.136 225.041 37.168 225.041 37.488C225.041 37.5307 225.019 37.5733 224.977 37.616C223.953 38.512 223.089 39.248 222.385 39.824C221.681 40.4 220.838 40.9547 219.857 41.488C218.897 42 218.107 42.256 217.489 42.256C216.721 42.256 216.145 42.0853 215.761 41.744C215.398 41.4027 215.216 41.0293 215.216 40.624C215.216 39.856 215.355 39.248 215.633 38.8C215.91 38.352 216.379 37.7333 217.041 36.944C216.806 37.136 216.433 37.456 215.921 37.904C215.43 38.352 215.088 38.6507 214.896 38.8C214.704 38.9493 214.608 38.9067 214.608 38.672C214.608 38.5227 214.779 38.3093 215.12 38.032C215.462 37.7547 216.198 37.0507 217.329 35.92C218.481 34.7893 219.259 34.1173 219.665 33.904C220.091 33.6907 220.433 33.584 220.689 33.584C220.966 33.584 221.169 33.6267 221.297 33.712C221.425 33.776 221.457 33.8507 221.393 33.936ZM225.759 39.088C225.183 40.496 224.895 41.68 224.895 42.64C224.895 43.6 225.034 44.24 225.311 44.56C225.375 44.6453 225.386 44.6987 225.343 44.72C225.301 44.7627 225.269 44.784 225.247 44.784C225.226 44.784 225.194 44.7733 225.151 44.752C224.469 44.176 224.085 43.5467 223.999 42.864C223.957 42.6293 223.935 42.3733 223.935 42.096C223.935 40.8587 224.298 39.3333 225.023 37.52C223.957 38.5867 223.402 38.992 223.359 38.736C223.381 38.544 223.53 38.3307 223.807 38.096C224.085 37.84 224.714 37.1147 225.695 35.92C227.829 31.184 230.623 27.2267 234.079 24.048C235.871 22.384 237.493 21.552 238.943 21.552C240.138 21.552 240.831 22.0427 241.023 23.024C241.066 23.1733 241.087 23.3333 241.087 23.504C241.087 25.3173 239.274 27.4507 235.647 29.904C234.389 30.7573 233.237 31.408 232.191 31.856C231.935 31.9627 231.786 31.952 231.743 31.824C231.701 31.6747 231.807 31.5467 232.063 31.44C233.045 30.992 234.165 30.32 235.423 29.424C236.682 28.528 237.813 27.5573 238.815 26.512C239.818 25.4453 240.319 24.624 240.319 24.048C240.319 23.6853 240.117 23.504 239.711 23.504C239.306 23.504 238.719 23.7387 237.951 24.208C235.818 25.5093 233.482 27.792 230.943 31.056C229.365 33.0827 228.063 34.9387 227.039 36.624C228.533 34.64 230.069 33.328 231.647 32.688C232.245 32.4747 232.746 32.368 233.151 32.368C233.557 32.368 233.909 32.432 234.207 32.56C234.783 32.816 235.071 33.2427 235.071 33.84C235.071 34.9067 234.442 35.9093 233.183 36.848C232.458 37.36 231.626 37.7333 230.687 37.968C229.77 38.1813 229.077 38.288 228.607 38.288C228.138 38.288 227.743 38.224 227.423 38.096C228.106 38.9707 228.991 39.728 230.079 40.368C231.189 41.008 232.085 41.328 232.767 41.328C233.215 41.328 233.567 41.2213 233.823 41.008C234.079 40.7947 234.207 40.624 234.207 40.496C234.207 40.3467 234.229 40.272 234.271 40.272C234.335 40.272 234.367 40.2933 234.367 40.336C234.367 41.0827 233.802 41.5947 232.671 41.872C232.202 41.9787 231.605 42.032 230.879 42.032C230.175 42.032 229.375 41.808 228.479 41.36C227.114 40.72 226.207 39.9627 225.759 39.088ZM232.831 34.8C232.831 34.0533 232.479 33.68 231.775 33.68C230.965 33.68 230.058 34.128 229.055 35.024C228.074 35.92 227.349 36.656 226.879 37.232C226.922 37.3387 227.007 37.4987 227.135 37.712C227.391 37.8613 227.679 37.936 227.999 37.936C228.341 37.936 228.885 37.84 229.631 37.648C230.378 37.4347 231.093 37.072 231.775 36.56C232.479 36.0267 232.831 35.44 232.831 34.8Z" fill="#F7F7F7"/>
<defs>
<radialGradient id="paint0_radial" cx="0" cy="0" r="1" gradientUnits="userSpaceOnUse" gradientTransform="translate(30.5 25.5) rotate(90) scale(25.5)">
<stop stop-color="#FAF000"/>
<stop offset="0.614583" stop-color="#FCC400"/>
<stop offset="0.9375" stop-color="#FCC400"/>
</radialGradient>
</defs>
</svg>
