<svg width="72" height="97" viewBox="0 0 72 97" fill="none" xmlns="http://www.w3.org/2000/svg">
<path d="M5 1H21V17C21 19.2091 19.2091 21 17 21H1V5C1 2.79086 2.79086 1 5 1Z" stroke="#FCB500" stroke-width="2"/>
<path d="M26 1H42C44.2091 1 46 2.79086 46 5V21H30C27.7909 21 26 19.2091 26 17V1Z" stroke="#FEFEFE" stroke-width="2"/>
<path d="M55 1H71V17C71 19.2091 69.2091 21 67 21H51V5C51 2.79086 52.7909 1 55 1Z" stroke="#FCB500" stroke-width="2"/>
<path d="M55 26H71V42C71 44.2091 69.2091 46 67 46H51V30C51 27.7909 52.7909 26 55 26Z" stroke="#FCB500" stroke-width="2"/>
<path d="M51 51H67C69.2091 51 71 52.7909 71 55V71H55C52.7909 71 51 69.2091 51 67V51Z" stroke="#FCB500" stroke-width="2"/>
<path d="M51 76H67C69.2091 76 71 77.7909 71 80V96H55C52.7909 96 51 94.2091 51 92V76Z" stroke="#FCB500" stroke-width="2"/>
<path d="M5 26H21V42C21 44.2091 19.2091 46 17 46H1V30C1 27.7909 2.79086 26 5 26Z" stroke="#FCB500" stroke-width="2"/>
<path d="M1 51H17C19.2091 51 21 52.7909 21 55V71H5C2.79086 71 1 69.2091 1 67V51Z" stroke="#FCB500" stroke-width="2"/>
<path d="M5 76H21V92C21 94.2091 19.2091 96 17 96H1V80C1 77.7909 2.79086 76 5 76Z" stroke="#FCB500" stroke-width="2"/>
<path d="M26 50H42C44.2091 50 46 51.7909 46 54V70H30C27.7909 70 26 68.2091 26 66V50Z" stroke="#FDFDFD" stroke-width="2"/>
</svg>
